<svg width="170" height="39" viewBox="0 0 170 39" fill="none" xmlns="http://www.w3.org/2000/svg">
<path d="M41.6832 0.763809H13.8944L0 38.3226H16.3363L26.5132 24.0866H16.3028L31.317 8.27556L29.9054 20.2354H39.3297L26.5464 38.3226H55.5776L41.6832 0.763809Z" fill="#E93843"/>
<path d="M58.3857 38.3276V0.758759H76.4724C79.9789 0.758759 83.0023 1.33124 85.5426 2.47619C88.1188 3.62115 90.1046 5.26702 91.5 7.41381C92.8954 9.52482 93.5931 12.0294 93.5931 14.9276C93.5931 17.8258 92.8954 20.3303 91.5 22.4414C90.1046 24.5166 88.1188 26.1088 85.5426 27.218C83.0023 28.3271 79.9789 28.8817 76.4724 28.8817H65.4165L71.0518 23.6758V38.3276H58.3857ZM80.8734 38.3276L71.6422 24.6418H85.0596L94.3981 38.3276H80.8734ZM71.0518 25.0712L65.4165 19.3285H75.6674C77.4206 19.3285 78.7087 18.9349 79.5316 18.1478C80.3903 17.3606 80.8197 16.2872 80.8197 14.9276C80.8197 13.5679 80.3903 12.4946 79.5316 11.7074C78.7087 10.9202 77.4206 10.5267 75.6674 10.5267H65.4165L71.0518 4.78399V25.0712Z" fill="#E93843"/>
<path d="M106.01 38.3276V10.5803H95.0074V0.758759H129.678V10.5803H118.676V38.3276H106.01Z" fill="#E93843"/>
<path d="M157.334 0.758759H170V38.3276H157.334V0.758759ZM145.634 38.3276H132.968V0.758759H145.634V38.3276ZM158.193 24.4808H144.775V14.0689H158.193V24.4808Z" fill="#E93843"/>
<path fill-rule="evenodd" clip-rule="evenodd" d="M23.8499 27.8121C17.9507 25.3122 12.4429 22.069 7.44409 18.1999L13.8943 0.763809H41.6831L53.848 33.6473H52.7024C45.4936 33.6473 38.5255 32.6166 31.9375 30.6946L39.3297 20.2354H29.9053L31.3169 8.27556L16.3027 24.0866H26.5131L23.8499 27.8121ZM71.0517 33.6473H58.3857V0.758759H76.4724C79.9788 0.758759 83.0022 1.33124 85.5426 2.47619C88.1187 3.62115 90.1045 5.26702 91.4999 7.41381C92.8953 9.52482 93.593 12.0294 93.593 14.9276C93.593 17.8258 92.8953 20.3303 91.4999 22.4414C90.2842 24.2493 88.6204 25.6907 86.5086 26.7654L91.2045 33.6473H77.7164L74.502 28.8817H71.0517V33.6473ZM118.676 33.6473H106.01V10.5803H95.0073V0.758759H129.678V10.5803H118.676V33.6473ZM145.634 30.3142C141.552 31.585 137.319 32.5119 132.968 33.0611V0.758759H145.634V14.0689H157.334V0.758759H170V17.3043C166.086 20.4574 161.844 23.22 157.334 25.5332V24.4808H145.634V30.3142ZM71.0517 19.3285H75.6673C77.4205 19.3285 78.7086 18.9349 79.5316 18.1478C80.3903 17.3606 80.8196 16.2872 80.8196 14.9276C80.8196 13.5679 80.3903 12.4946 79.5316 11.7074C78.7086 10.9202 77.4205 10.5267 75.6673 10.5267H71.0517V19.3285Z" fill="url(#paint0_radial_70_2)"/>
<g opacity="0.5">
<path d="M13.8943 0.763809H41.6831L55.5775 38.3226L41.1772 1.52935L13.8943 0.763809Z" fill="url(#paint1_linear_70_2)"/>
<path d="M58.3856 0.758759H76.4723C79.9788 0.758759 83.0021 1.33124 85.5425 2.47619C81.7222 1.741 79.7211 1.51833 76.4723 1.52935H58.3856V0.758759Z" fill="url(#paint2_linear_70_2)"/>
<path d="M95.0073 0.758759H129.678V1.52935C116.234 0.999145 108.645 1.02172 95.0073 1.52935V0.758759Z" fill="url(#paint3_linear_70_2)"/>
<path d="M170 38.3276H157.334V24.4808L158.193 25.2815V37.7425L170 38.3276Z" fill="url(#paint4_linear_70_2)"/>
<path d="M132.968 0.758759H145.634V1.00282C143.424 1.00281 133.436 1.52935 133.436 1.52935L132.968 17.2666V0.758759Z" fill="url(#paint5_linear_70_2)"/>
<path d="M74.5238 28.9086H76.6884L75.9279 29.4351L81.3686 38.035L82.8312 38.3276H80.9006L74.5238 28.9086Z" fill="url(#paint6_linear_70_2)"/>
<path d="M31.3488 8.25716L29.8862 20.2502H39.3052L26.5516 38.3276L40.4752 19.7822H30.5882L31.3488 8.25716Z" fill="url(#paint7_linear_70_2)"/>
<path d="M105.998 10.5973H107.168L106.759 33.5888L105.998 38.3276V10.5973Z" fill="url(#paint8_linear_70_2)"/>
<path d="M157.364 14.0689L158.193 12.8789V0.758759H157.364V14.0689Z" fill="url(#paint9_linear_70_2)"/>
</g>
<defs>
<radialGradient id="paint0_radial_70_2" cx="0" cy="0" r="1" gradientUnits="userSpaceOnUse" gradientTransform="translate(88.722 -1.17859) rotate(90) scale(41.8423 108.728)">
<stop offset="0.575" stop-color="#F56922"/>
<stop offset="1" stop-color="#E13663"/>
</radialGradient>
<linearGradient id="paint1_linear_70_2" x1="91.9471" y1="0.758759" x2="91.9471" y2="38.3276" gradientUnits="userSpaceOnUse">
<stop stop-color="white"/>
<stop offset="1" stop-color="white" stop-opacity="0"/>
</linearGradient>
<linearGradient id="paint2_linear_70_2" x1="91.9471" y1="0.758759" x2="91.9471" y2="38.3276" gradientUnits="userSpaceOnUse">
<stop stop-color="white"/>
<stop offset="1" stop-color="white" stop-opacity="0"/>
</linearGradient>
<linearGradient id="paint3_linear_70_2" x1="91.9471" y1="0.758759" x2="91.9471" y2="38.3276" gradientUnits="userSpaceOnUse">
<stop stop-color="white"/>
<stop offset="1" stop-color="white" stop-opacity="0"/>
</linearGradient>
<linearGradient id="paint4_linear_70_2" x1="91.9471" y1="0.758759" x2="91.9471" y2="38.3276" gradientUnits="userSpaceOnUse">
<stop stop-color="white"/>
<stop offset="1" stop-color="white" stop-opacity="0"/>
</linearGradient>
<linearGradient id="paint5_linear_70_2" x1="91.9471" y1="0.758759" x2="91.9471" y2="38.3276" gradientUnits="userSpaceOnUse">
<stop stop-color="white"/>
<stop offset="1" stop-color="white" stop-opacity="0"/>
</linearGradient>
<linearGradient id="paint6_linear_70_2" x1="91.9471" y1="0.758759" x2="91.9471" y2="38.3276" gradientUnits="userSpaceOnUse">
<stop stop-color="white"/>
<stop offset="1" stop-color="white" stop-opacity="0"/>
</linearGradient>
<linearGradient id="paint7_linear_70_2" x1="91.9471" y1="0.758759" x2="91.9471" y2="38.3276" gradientUnits="userSpaceOnUse">
<stop stop-color="white"/>
<stop offset="1" stop-color="white" stop-opacity="0"/>
</linearGradient>
<linearGradient id="paint8_linear_70_2" x1="91.9471" y1="0.758759" x2="91.9471" y2="38.3276" gradientUnits="userSpaceOnUse">
<stop stop-color="white"/>
<stop offset="1" stop-color="white" stop-opacity="0"/>
</linearGradient>
<linearGradient id="paint9_linear_70_2" x1="91.9471" y1="0.758759" x2="91.9471" y2="38.3276" gradientUnits="userSpaceOnUse">
<stop stop-color="white"/>
<stop offset="1" stop-color="white" stop-opacity="0"/>
</linearGradient>
</defs>
</svg>
