<svg width="99" height="22" viewBox="0 0 99 22" fill="none" xmlns="http://www.w3.org/2000/svg">
<path d="M24.0358 0.00291243H8.01192L0 21.6604H9.42001L15.2883 13.4515H9.40066L18.0583 4.33441L17.2443 11.2308H22.6787L15.3074 21.6604H32.0477L24.0358 0.00291243Z" fill="white"/>
<path d="M33.6669 21.6633V0H44.0963C46.1182 0 47.8616 0.330108 49.3264 0.990323C50.8119 1.65054 51.957 2.5996 52.7616 3.8375C53.5662 5.05477 53.9686 6.499 53.9686 8.17017C53.9686 9.84134 53.5662 11.2856 52.7616 12.5028C51.957 13.6995 50.8119 14.6176 49.3264 15.2572C47.8616 15.8968 46.1182 16.2165 44.0963 16.2165H37.7211L40.9706 13.2146V21.6633H33.6669ZM46.634 21.6633L41.311 13.7717H49.0479L54.4328 21.6633H46.634ZM40.9706 14.0193L37.7211 10.7079H43.6321C44.643 10.7079 45.3858 10.4809 45.8603 10.027C46.3555 9.57312 46.603 8.95417 46.603 8.17017C46.603 7.38616 46.3555 6.76721 45.8603 6.31331C45.3858 5.85941 44.643 5.63246 43.6321 5.63246H37.7211L40.9706 2.32107V14.0193Z" fill="white"/>
<path d="M61.1283 21.6633V5.66341H54.7841V0H74.7762V5.66341H68.432V21.6633H61.1283Z" fill="white"/>
<path d="M90.7234 0H98.0271V21.6633H90.7234V0ZM83.9768 21.6633H76.6732V0H83.9768V21.6633ZM91.2186 13.6788H83.4817V7.675H91.2186V13.6788Z" fill="white"/>
</svg>
