<svg width="1965" height="173" viewBox="0 0 1965 173" fill="none" xmlns="http://www.w3.org/2000/svg">
<path d="M182.089 4.44485H60.6964L0 168.517H71.3637L115.82 106.328H71.2171L136.805 37.2592L130.639 89.5046H171.808L115.965 168.517H242.786L182.089 4.44485Z" fill="#E93843"/>
<path d="M255.053 168.539V4.42279H334.063C349.38 4.42279 362.588 6.92361 373.685 11.9252C384.939 16.9269 393.613 24.1167 399.709 33.4948C405.805 42.7165 408.853 53.6576 408.853 66.318C408.853 78.9784 405.805 89.9194 399.709 99.1412C393.613 108.207 384.939 115.162 373.685 120.007C362.588 124.853 349.38 127.275 334.063 127.275H285.766L310.383 104.534V168.539H255.053ZM353.288 168.539L312.962 108.754H371.575L412.37 168.539H353.288ZM310.383 110.629L285.766 85.543H330.546C338.205 85.543 343.832 83.8237 347.426 80.3851C351.178 76.9465 353.053 72.2574 353.053 66.318C353.053 60.3785 351.178 55.6895 347.426 52.2509C343.832 48.8123 338.205 47.093 330.546 47.093H285.766L310.383 22.0067V110.629Z" fill="#E93843"/>
<path d="M463.093 168.539V47.3274H415.031V4.42279H566.487V47.3274H518.424V168.539H463.093Z" fill="#E93843"/>
<path d="M687.299 4.42279H742.629V168.539H687.299V4.42279ZM636.188 168.539H580.858V4.42279H636.188V168.539ZM691.05 108.05H632.437V62.5668H691.05V108.05Z" fill="#E93843"/>
<path fill-rule="evenodd" clip-rule="evenodd" d="M104.186 122.602C78.4161 111.681 54.356 97.5135 32.519 80.6115L60.6961 4.44443H182.089L235.23 148.093H230.226C198.735 148.093 168.295 143.59 139.516 135.194L171.808 89.5042H130.639L136.805 37.2588L71.2168 106.328H115.82L104.186 122.602ZM310.383 148.093H255.052V4.42236H334.062C349.38 4.42236 362.587 6.92318 373.685 11.9248C384.938 16.9264 393.613 24.1163 399.709 33.4943C405.805 42.7161 408.853 53.6572 408.853 66.3176C408.853 78.9779 405.805 89.919 399.709 99.1408C394.398 107.039 387.13 113.335 377.905 118.03L398.418 148.093H339.497L325.455 127.275H310.383V148.093ZM518.424 148.093H463.093V47.327H415.031V4.42236H566.486V47.327H518.424V148.093ZM636.188 133.533C618.357 139.084 599.864 143.133 580.857 145.532V4.42236H636.188V62.5663H687.298V4.42236H742.629V76.7009C725.531 90.4744 707.001 102.543 687.298 112.648V108.05H636.188V133.533ZM310.383 85.5426H330.546C338.204 85.5426 343.831 83.8233 347.426 80.3847C351.177 76.946 353.053 72.257 353.053 66.3176C353.053 60.3781 351.177 55.6891 347.426 52.2505C343.831 48.8119 338.204 47.0925 330.546 47.0925H310.383V85.5426Z" fill="url(#paint0_radial_70_9)"/>
<g opacity="0.5">
<path d="M60.696 4.44485H182.089L242.785 168.517L179.879 7.78904L60.696 4.44485Z" fill="url(#paint1_linear_70_9)"/>
<path d="M255.052 4.42279H334.062C349.38 4.42279 362.587 6.92361 373.685 11.9252C356.996 8.71364 348.255 7.7409 334.062 7.78904H255.052V4.42279Z" fill="url(#paint2_linear_70_9)"/>
<path d="M415.031 4.42279H566.486V7.78904C507.757 5.4729 474.605 5.5715 415.031 7.78904V4.42279Z" fill="url(#paint3_linear_70_9)"/>
<path d="M742.629 168.539H687.298V108.05L691.05 111.548V165.983L742.629 168.539Z" fill="url(#paint4_linear_70_9)"/>
<path d="M580.857 4.42279H636.188V5.48897C626.534 5.4889 582.903 7.78904 582.903 7.78904L580.857 76.5357V4.42279Z" fill="url(#paint5_linear_70_9)"/>
<path d="M325.55 127.393H335.006L331.684 129.693L355.451 167.261L361.84 168.539H353.407L325.55 127.393Z" fill="url(#paint6_linear_70_9)"/>
<path d="M136.944 37.1789L130.555 89.5694H171.701L115.988 168.539L176.812 87.5249H133.622L136.944 37.1789Z" fill="url(#paint7_linear_70_9)"/>
<path d="M463.044 47.4014H468.155L466.366 147.838L463.044 168.539V47.4014Z" fill="url(#paint8_linear_70_9)"/>
<path d="M687.429 62.5668L691.05 57.3684V4.42279H687.429V62.5668Z" fill="url(#paint9_linear_70_9)"/>
</g>
<path d="M938.903 3.78057H994.666V169.181H938.903V3.78057ZM887.393 169.181H831.629V3.78057H887.393V169.181ZM942.683 108.219H883.612V62.3795H942.683V108.219Z" fill="white"/>
<path d="M1108.25 172.961C1094.86 172.961 1082.42 170.835 1070.92 166.582C1059.58 162.328 1049.73 156.342 1041.38 148.624C1033.03 140.748 1026.5 131.532 1021.77 120.978C1017.2 110.424 1014.92 98.925 1014.92 86.4806C1014.92 73.8787 1017.2 62.3795 1021.77 51.9829C1026.5 41.4288 1033.03 32.2924 1041.38 24.5737C1049.73 16.6975 1059.58 10.6329 1070.92 6.37972C1082.42 2.12657 1094.86 0 1108.25 0C1121.8 0 1134.24 2.12657 1145.58 6.37972C1156.93 10.6329 1166.77 16.6975 1175.12 24.5737C1183.47 32.2924 1189.93 41.4288 1194.5 51.9829C1199.22 62.3795 1201.58 73.8787 1201.58 86.4806C1201.58 98.925 1199.22 110.424 1194.5 120.978C1189.93 131.532 1183.47 140.748 1175.12 148.624C1166.77 156.342 1156.93 162.328 1145.58 166.582C1134.24 170.835 1121.8 172.961 1108.25 172.961ZM1108.25 127.831C1113.45 127.831 1118.25 126.885 1122.66 124.995C1127.23 123.105 1131.17 120.427 1134.48 116.961C1137.94 113.338 1140.62 109.007 1142.51 103.966C1144.4 98.7675 1145.35 92.9391 1145.35 86.4806C1145.35 80.0221 1144.4 74.2725 1142.51 69.2317C1140.62 64.0335 1137.94 59.7015 1134.48 56.236C1131.17 52.613 1127.23 49.8563 1122.66 47.966C1118.25 46.0757 1113.45 45.1306 1108.25 45.1306C1103.05 45.1306 1098.17 46.0757 1093.6 47.966C1089.19 49.8563 1085.25 52.613 1081.79 56.236C1078.48 59.7015 1075.88 64.0335 1073.99 69.2317C1072.1 74.2725 1071.15 80.0221 1071.15 86.4806C1071.15 92.9391 1072.1 98.7675 1073.99 103.966C1075.88 109.007 1078.48 113.338 1081.79 116.961C1085.25 120.427 1089.19 123.105 1093.6 124.995C1098.17 126.885 1103.05 127.831 1108.25 127.831Z" fill="white"/>
<path d="M1283.49 172.961C1269.63 172.961 1256.24 171.386 1243.33 168.236C1230.41 165.085 1219.78 160.989 1211.43 155.949L1229.38 115.307C1237.26 119.876 1246 123.577 1255.61 126.413C1265.38 129.091 1274.83 130.43 1283.97 130.43C1289.32 130.43 1293.5 130.115 1296.49 129.485C1299.64 128.697 1301.92 127.673 1303.34 126.413C1304.76 124.995 1305.47 123.341 1305.47 121.451C1305.47 118.458 1303.81 116.095 1300.51 114.362C1297.2 112.63 1292.79 111.212 1287.27 110.109C1281.92 108.849 1276.01 107.589 1269.55 106.329C1263.1 104.911 1256.56 103.099 1249.94 100.894C1243.48 98.6887 1237.5 95.7745 1231.98 92.1515C1226.63 88.5284 1222.3 83.8027 1218.99 77.9743C1215.68 71.9884 1214.03 64.5848 1214.03 55.7635C1214.03 45.5244 1216.86 36.2305 1222.53 27.8817C1228.36 19.3754 1236.95 12.6019 1248.29 7.56115C1259.79 2.52038 1274.04 0 1291.06 0C1302.24 0 1313.27 1.18143 1324.14 3.54428C1335 5.90714 1344.77 9.53019 1353.43 14.4134L1336.66 54.8183C1328.47 50.7227 1320.51 47.651 1312.79 45.6032C1305.23 43.5554 1297.83 42.5314 1290.58 42.5314C1285.23 42.5314 1280.97 43.004 1277.82 43.9492C1274.67 44.8943 1272.39 46.1545 1270.97 47.7297C1269.71 49.305 1269.08 51.0377 1269.08 52.928C1269.08 55.7634 1270.73 58.0475 1274.04 59.7803C1277.35 61.3555 1281.68 62.6945 1287.04 63.7972C1292.55 64.8998 1298.54 66.0813 1305 67.3415C1311.61 68.6016 1318.15 70.3344 1324.61 72.5397C1331.07 74.7451 1336.97 77.6593 1342.33 81.2823C1347.84 84.9054 1352.25 89.6311 1355.56 95.4595C1358.87 101.288 1360.52 108.534 1360.52 117.198C1360.52 127.279 1357.61 136.573 1351.78 145.079C1346.11 153.428 1337.6 160.202 1326.26 165.4C1314.92 170.441 1300.66 172.961 1283.49 172.961Z" fill="white"/>
<path d="M1410.73 169.181V47.0209H1362.29V3.78057H1514.93V47.0209H1466.49V169.181H1410.73Z" fill="white"/>
<path d="M1529.41 169.181V3.78057H1585.17V169.181H1529.41Z" fill="white"/>
<path d="M1612.02 169.181V3.78057H1657.86L1741.98 104.438H1720.71V3.78057H1775.06V169.181H1729.22L1645.1 68.5229H1666.36V169.181H1612.02Z" fill="white"/>
<path d="M1887.7 172.961C1874.31 172.961 1861.94 170.913 1850.6 166.818C1839.41 162.565 1829.65 156.579 1821.3 148.86C1813.11 141.141 1806.73 132.005 1802.16 121.451C1797.59 110.897 1795.31 99.24 1795.31 86.4806C1795.31 73.7212 1797.59 62.0644 1802.16 51.5103C1806.73 40.9562 1813.19 31.8198 1821.54 24.1012C1829.88 16.3825 1839.73 10.4753 1851.07 6.37972C1862.57 2.12657 1875.17 0 1888.88 0C1905.26 0 1919.83 2.75666 1932.59 8.27C1945.51 13.7833 1956.14 21.6595 1964.49 31.8986L1928.81 63.3246C1923.61 57.3387 1917.94 52.8493 1911.8 49.8563C1905.81 46.7058 1899.12 45.1306 1891.71 45.1306C1885.57 45.1306 1879.98 46.0757 1874.94 47.966C1870.05 49.8563 1865.88 52.613 1862.41 56.236C1858.95 59.8591 1856.27 64.191 1854.38 69.2317C1852.49 74.2725 1851.54 80.0221 1851.54 86.4806C1851.54 92.624 1852.49 98.2949 1854.38 103.493C1856.27 108.534 1858.95 112.866 1862.41 116.489C1865.88 120.112 1869.97 122.947 1874.7 124.995C1879.58 126.885 1885.02 127.831 1891 127.831C1897.3 127.831 1903.45 126.807 1909.43 124.759C1915.42 122.554 1921.8 118.852 1928.57 113.653L1959.76 151.932C1949.68 158.705 1938.18 163.904 1925.27 167.527C1912.35 171.15 1899.82 172.961 1887.7 172.961ZM1911.32 144.843V81.9912H1959.76V151.932L1911.32 144.843Z" fill="white"/>
<defs>
<radialGradient id="paint0_radial_70_9" cx="0" cy="0" r="1" gradientUnits="userSpaceOnUse" gradientTransform="translate(387.574 -4.04075) rotate(90) scale(182.784 474.969)">
<stop offset="0.575" stop-color="#F56922"/>
<stop offset="1" stop-color="#E13663"/>
</radialGradient>
<linearGradient id="paint1_linear_70_9" x1="401.662" y1="4.42279" x2="401.662" y2="168.539" gradientUnits="userSpaceOnUse">
<stop stop-color="white"/>
<stop offset="1" stop-color="white" stop-opacity="0"/>
</linearGradient>
<linearGradient id="paint2_linear_70_9" x1="401.662" y1="4.42279" x2="401.662" y2="168.539" gradientUnits="userSpaceOnUse">
<stop stop-color="white"/>
<stop offset="1" stop-color="white" stop-opacity="0"/>
</linearGradient>
<linearGradient id="paint3_linear_70_9" x1="401.662" y1="4.42279" x2="401.662" y2="168.539" gradientUnits="userSpaceOnUse">
<stop stop-color="white"/>
<stop offset="1" stop-color="white" stop-opacity="0"/>
</linearGradient>
<linearGradient id="paint4_linear_70_9" x1="401.662" y1="4.42279" x2="401.662" y2="168.539" gradientUnits="userSpaceOnUse">
<stop stop-color="white"/>
<stop offset="1" stop-color="white" stop-opacity="0"/>
</linearGradient>
<linearGradient id="paint5_linear_70_9" x1="401.662" y1="4.42279" x2="401.662" y2="168.539" gradientUnits="userSpaceOnUse">
<stop stop-color="white"/>
<stop offset="1" stop-color="white" stop-opacity="0"/>
</linearGradient>
<linearGradient id="paint6_linear_70_9" x1="401.662" y1="4.42279" x2="401.662" y2="168.539" gradientUnits="userSpaceOnUse">
<stop stop-color="white"/>
<stop offset="1" stop-color="white" stop-opacity="0"/>
</linearGradient>
<linearGradient id="paint7_linear_70_9" x1="401.662" y1="4.42279" x2="401.662" y2="168.539" gradientUnits="userSpaceOnUse">
<stop stop-color="white"/>
<stop offset="1" stop-color="white" stop-opacity="0"/>
</linearGradient>
<linearGradient id="paint8_linear_70_9" x1="401.662" y1="4.42279" x2="401.662" y2="168.539" gradientUnits="userSpaceOnUse">
<stop stop-color="white"/>
<stop offset="1" stop-color="white" stop-opacity="0"/>
</linearGradient>
<linearGradient id="paint9_linear_70_9" x1="401.662" y1="4.42279" x2="401.662" y2="168.539" gradientUnits="userSpaceOnUse">
<stop stop-color="white"/>
<stop offset="1" stop-color="white" stop-opacity="0"/>
</linearGradient>
</defs>
</svg>
