<?xml version="1.0" encoding="utf-8"?>
<svg width="344" height="1480" viewBox="0 0 344 1480" fill="none" stroke="none" version="1.1" xmlns:xlink="http://www.w3.org/1999/xlink" xmlns="http://www.w3.org/2000/svg">
  <defs>
    <path id="path_1" d="M344 0L344 0L344 1480L0 1480L0 0L344 0Z" />
    <rect id="rect_2" x="0" y="0" width="344" height="1480" />
    <clipPath id="clip_path_3">
      <use xlink:href="#rect_2" />
    </clipPath>
    <path id="path_4" d="M0 0L344 0L344 1480L0 1480L0 0Z" />
    <clipPath id="clip_path_5">
      <use xlink:href="#path_4" />
    </clipPath>
    <path id="path_6" d="M0 0L344 0L344 1480L0 1480L0 0L0 0Z" />
    <clipPath id="clip_path_7">
      <use xlink:href="#path_6" />
    </clipPath>
    <linearGradient id="gradient_8" gradientUnits="userSpaceOnUse" x1="-61.144" y1="-1335.877" x2="278.553" y2="-1336.791">
      <stop offset="0" stop-color="#F76E1E" />
      <stop offset="1" stop-color="#DD2D6F" />
    </linearGradient>
    <filter color-interpolation-filters="sRGB" x="-344.956" y="-53.177" width="346.956" height="55.177" id="filter_9">
      <feFlood flood-opacity="0" result="BackgroundImageFix_1" />
      <feBlend mode="normal" in="SourceGraphic" in2="BackgroundImageFix_1" result="Shape_2" />
      <feGaussianBlur stdDeviation="43.2" />
    </filter>
    <linearGradient id="gradient_10" gradientUnits="userSpaceOnUse" x1="268.671" y1="-1358.034" x2="268.671" y2="-570.533">
      <stop offset="0" stop-color="#090605" />
      <stop offset="1" stop-color="#160600" />
    </linearGradient>
    <linearGradient id="gradient_11" gradientUnits="userSpaceOnUse" x1="-61.031" y1="-1284.105" x2="278.665" y2="-1284.958">
      <stop offset="0" stop-color="#F76E1E" />
      <stop offset="1" stop-color="#DD2D6F" />
    </linearGradient>
  </defs>
  <g id="Frame" opacity="1" clip-path="url(#clip_path_3)">
    <g>
      <use xlink:href="#path_1" style="mix-blend-mode:normal;" />
      <g>
        <g id="Group">
          <rect id="rect_2#2" width="344" height="1480" style="mix-blend-mode:normal;" />
          <g clip-path="url(#clip_path_5)">
            <g id="landingbg_mobile">
              <g id="Group">
                <path id="path_1#2" d="M344 0L344 0L344 1480L0 1480L0 0L344 0L344 0Z" style="mix-blend-mode:normal;" />
                <g id="Group">
                  <g id="Mask Group">
                    <rect id="rect_2#1" width="344" height="1480" style="mix-blend-mode:normal;" />
                    <g id="Group">
                      <path id="path_4#1" d="M0 0L344 0L344 1480L0 1480L0 0L0 0Z" style="mix-blend-mode:normal;" />
                      <g clip-path="url(#clip_path_7)">
                        <g id="Group" transform="translate(-64.459 0)">
                          <g id="Frame">
                            <g id="Group">
                              <path id="path_1#1" d="M343.977 0L343.977 0L343.977 1480L0 1480L0 0L343.977 0L343.977 0L343.977 0Z" style="mix-blend-mode:normal;" transform="translate(64.455 0)" />
                              <g id="Group#1" transform="translate(0 224.65)">
                                <path id="Path" d="M0.32885 0C0.32885 0 41.2768 1.6973 70.504 38.3505C92.2557 79.2958 121.838 63.5849 141.004 49.8505C174.554 23.8573 237.024 53.7925 276.504 62.8505C347.294 75.6646 343.977 114.851 343.977 114.851C343.977 114.851 343.977 349.171 343.977 349.171C343.977 349.171 0 349.172 0 349.172C0 349.172 0.32885 0 0.32885 0C0.32885 0 0.32885 0 0.32885 0C0.32885 0 0.32885 0 0.32885 0Z" style="fill:#0E0E0E;fill-rule:evenodd;mix-blend-mode:normal;" transform="translate(64.455 0)" />
                                <rect id="Rectangle" width="343.977" height="907" style="fill:#0E0E0E;fill-rule:evenodd;mix-blend-mode:normal;" transform="translate(64.455 348.35)" />
                                <path id="Rectangle#1" d="M0.228897 0L346.956 46.0499L346.432 55.1771L0 9.16656L0.228897 0L0.228897 0L0.228897 0Z" style="fill:url(#gradient_8);fill-rule:evenodd;filter:url(#filter_9);mix-blend-mode:normal;" transform="translate(64.226 556.35)" />
                                <path id="Path#1" d="M64.4589 0L408.432 46L408.432 775.135L0 787.5L64.4546 0L64.4589 0L64.4589 0Z" style="fill:url(#gradient_10);fill-rule:evenodd;mix-blend-mode:normal;" transform="translate(0 561.35)" />
                                <path id="Rectangle#2" d="M0.226715 0L346.954 46.0499L346.43 51.5L0 5L0.226715 0L0.226715 0L0.226715 0Z" style="fill:url(#gradient_11);fill-rule:evenodd;mix-blend-mode:normal;" transform="translate(64.17 556.35)" />
                              </g>
                            </g>
                          </g>
                        </g>
                      </g>
                    </g>
                  </g>
                </g>
              </g>
            </g>
          </g>
        </g>
      </g>
    </g>
  </g>
</svg>