<svg width="1512" height="1476" viewBox="0 0 1512 1476" fill="none" xmlns="http://www.w3.org/2000/svg">
<path d="M1620 313.9L1607.5 0.900239L1602.5 1.09976L1615 314.1L1620 313.9ZM1523 169.012L1523.02 164.534L1519.2 166.864L1519.2 166.865L1519.18 166.874L1519.1 166.922C1519.03 166.966 1518.91 167.035 1518.75 167.127C1518.42 167.312 1517.91 167.592 1517.22 167.954C1515.84 168.68 1513.71 169.739 1510.79 171.046C1504.93 173.661 1495.86 177.268 1483.11 181.18C1457.62 189.005 1417.4 198.053 1358.7 202.821C1241.3 212.357 1050.01 204.772 754.817 136.065C459.195 67.2578 270.264 72.5867 155.111 95.2345C97.5317 106.559 58.4061 122.213 33.6249 135.086C21.2353 141.522 12.4357 147.261 6.71147 151.413C3.84952 153.488 1.75687 155.167 0.369153 156.336C-0.324691 156.921 -0.842258 157.379 -1.1916 157.695C-1.36627 157.854 -1.49888 157.977 -1.59043 158.063C-1.63621 158.106 -1.67172 158.139 -1.6971 158.164L-1.72757 158.193L-1.73713 158.202C-1.74035 158.205 -1.74293 158.208 0 160L-1.74293 158.208L-2.5 158.944V160V1478.5V1481H0H1514H1516.49L1516.5 1478.51L1523 169.012Z" fill="url(#paint0_linear_15_81)" stroke="url(#paint1_radial_15_81)" stroke-width="5"/>
<defs>
<linearGradient id="paint0_linear_15_81" x1="809" y1="1017" x2="796.5" y2="1504" gradientUnits="userSpaceOnUse">
<stop stop-color="#000C1D"/>
<stop offset="1" stop-color="#001738"/>
</linearGradient>
<radialGradient id="paint1_radial_15_81" cx="0" cy="0" r="1" gradientUnits="userSpaceOnUse" gradientTransform="translate(19.5 175) rotate(0.090002) scale(1591.5 1742.3)">
<stop stop-color="#030A1A"/>
<stop offset="1" stop-color="#103280" stop-opacity="0"/>
</radialGradient>
</defs>
</svg>
