<svg width="243" height="165" viewBox="0 0 243 165" fill="none" xmlns="http://www.w3.org/2000/svg">
<path d="M181.989 0.5H60.6631L0 164.5H103.897V107.602H69.0304L121.326 38.1534L173.622 107.393L138.479 107.602V164.5L242.652 164.482L181.989 0.5Z" fill="#E93843"/>
<path d="M103.755 122.036C77.999 111.121 53.7192 96.8662 31.8943 79.9735L60.6631 0.500511H181.989L236.168 147.347L229.492 147.417C198.019 147.417 167.242 142.56 138.479 134.169L138.479 107.602L173.622 107.393L121.326 38.1534L70.4947 105.634L74.0225 107.602H103.755V122.036Z" fill="url(#paint0_radial_89_129)"/>
<path d="M60.6631 0.5H181.989L242.652 164.482L179.781 3.84236L60.6631 0.5Z" fill="url(#paint1_linear_89_129)" fill-opacity="0.49"/>
<path d="M121.326 33.9697L100.826 65.3472L121.326 38.1534L173.622 107.393L164.418 93.1685L121.326 33.9697Z" fill="url(#paint2_linear_89_129)" fill-opacity="0.49"/>
<defs>
<radialGradient id="paint0_radial_89_129" cx="0" cy="0" r="1" gradientUnits="userSpaceOnUse" gradientTransform="translate(422.252 -8.96714) rotate(90) scale(203.926 563.897)">
<stop offset="0.575" stop-color="#F56922"/>
<stop offset="1" stop-color="#E13663"/>
</radialGradient>
<linearGradient id="paint1_linear_89_129" x1="401.443" y1="0.478049" x2="401.443" y2="164.504" gradientUnits="userSpaceOnUse">
<stop stop-color="white"/>
<stop offset="1" stop-color="white" stop-opacity="0"/>
</linearGradient>
<linearGradient id="paint2_linear_89_129" x1="401.443" y1="0.478049" x2="401.443" y2="164.504" gradientUnits="userSpaceOnUse">
<stop stop-color="white"/>
<stop offset="1" stop-color="white" stop-opacity="0"/>
</linearGradient>
</defs>
</svg>