<svg width="264" height="40" viewBox="0 0 264 40" fill="none" xmlns="http://www.w3.org/2000/svg">
<path d="M26.2798 9.23485H10.2559L2.24402 30.8923H11.664L17.5323 22.6834H11.6447L20.3023 13.5663L19.4883 20.4627H24.9227L17.5514 30.8923H34.2917L26.2798 9.23485Z" fill="#E93843"/>
<path d="M35.911 30.8953V9.23193H46.3403C48.3622 9.23193 50.1056 9.56204 51.5704 10.2223C53.0559 10.8825 54.201 11.8315 55.0056 13.0694C55.8103 14.2867 56.2126 15.7309 56.2126 17.4021C56.2126 19.0733 55.8103 20.5175 55.0056 21.7348C54.201 22.9314 53.0559 23.8495 51.5704 24.4891C50.1056 25.1287 48.3622 25.4485 46.3403 25.4485H39.9651L43.2146 22.4466V30.8953H35.911ZM48.878 30.8953L43.555 23.0036H51.2919L56.6768 30.8953H48.878ZM43.2146 23.2512L39.9651 19.9398H45.8761C46.887 19.9398 47.6298 19.7129 48.1043 19.259C48.5995 18.8051 48.8471 18.1861 48.8471 17.4021C48.8471 16.6181 48.5995 15.9991 48.1043 15.5452C47.6298 15.0913 46.887 14.8644 45.8761 14.8644H39.9651L43.2146 11.553V23.2512Z" fill="#E93843"/>
<path d="M63.3724 30.8953V14.8953H57.0281V9.23193H77.0202V14.8953H70.676V30.8953H63.3724Z" fill="#E93843"/>
<path d="M92.9674 9.23193H100.271V30.8953H92.9674V9.23193ZM86.2209 30.8953H78.9172V9.23193H86.2209V30.8953ZM93.4626 22.9108H85.7257V16.9069H93.4626V22.9108Z" fill="#E93843"/>
<path fill-rule="evenodd" clip-rule="evenodd" d="M15.9966 24.8314C12.5949 23.3899 9.41898 21.5197 6.5365 19.2886L10.2559 9.2346H26.2797L33.2943 28.1962H32.6339C28.477 28.1962 24.459 27.6019 20.6601 26.4935L24.9226 20.4625H19.4883L20.3022 13.5661L11.6446 22.6832H17.5322L15.9966 24.8314ZM43.2145 28.1962H35.9109V9.23169H46.3402C48.3621 9.23169 50.1055 9.5618 51.5704 10.222C53.0559 10.8822 54.2009 11.8313 55.0056 13.0692C55.8102 14.2865 56.2125 15.7307 56.2125 17.4019C56.2125 19.073 55.8102 20.5172 55.0056 21.7345C54.3045 22.777 53.3452 23.6082 52.1274 24.2279L54.8352 28.1962H47.0576L45.204 25.4482H43.2145V28.1962ZM70.6759 28.1962H63.3723V14.8951H57.028V9.23169H77.0202V14.8951H70.6759V28.1962ZM86.2208 26.2743C83.8671 27.007 81.4261 27.5415 78.9172 27.8581V9.23169H86.2208V16.9067H92.9674V9.23169H100.271V18.7725C98.014 20.5906 95.5681 22.1836 92.9674 23.5174V22.9105H86.2208V26.2743ZM43.2145 19.9396H45.876C46.887 19.9396 47.6297 19.7126 48.1042 19.2587C48.5994 18.8048 48.847 18.1859 48.847 17.4019C48.847 16.6179 48.5994 15.9989 48.1042 15.545C47.6297 15.0911 46.887 14.8642 45.876 14.8642H43.2145V19.9396Z" fill="url(#paint0_radial_12_7)"/>
<g opacity="0.5">
<path d="M10.2559 9.2346H26.2797L34.2916 30.8921L25.988 9.67603L10.2559 9.2346Z" fill="url(#paint1_linear_12_7)"/>
<path d="M35.9109 9.23169H46.3402C48.3621 9.23169 50.1055 9.5618 51.5704 10.222C49.3675 9.79808 48.2136 9.66968 46.3402 9.67603H35.9109V9.23169Z" fill="url(#paint2_linear_12_7)"/>
<path d="M57.028 9.23169H77.0202V9.67603C69.2678 9.3703 64.8919 9.38332 57.028 9.67603V9.23169Z" fill="url(#paint3_linear_12_7)"/>
<path d="M100.271 30.895H92.9674V22.9105L93.4625 23.3722V30.5576L100.271 30.895Z" fill="url(#paint4_linear_12_7)"/>
<path d="M78.9172 9.23169H86.2208V9.37243C84.9465 9.37242 79.1872 9.67603 79.1872 9.67603L78.9172 18.7506V9.23169Z" fill="url(#paint5_linear_12_7)"/>
<path d="M45.2166 25.4637H46.4648L46.0263 25.7673L49.1636 30.7263L50.0069 30.895H48.8937L45.2166 25.4637Z" fill="url(#paint6_linear_12_7)"/>
<path d="M20.3206 13.5555L19.4773 20.471H24.9085L17.5544 30.895L25.5832 20.2012H19.8821L20.3206 13.5555Z" fill="url(#paint7_linear_12_7)"/>
<path d="M63.3657 14.9049H64.0404L63.8043 28.1625L63.3657 30.895V14.9049Z" fill="url(#paint8_linear_12_7)"/>
<path d="M92.9846 16.9067L93.4625 16.2205V9.23169H92.9846V16.9067Z" fill="url(#paint9_linear_12_7)"/>
</g>
<path d="M126.179 9.14698H133.54V30.9798H126.179V9.14698ZM119.38 30.9798H112.019V9.14698H119.38V30.9798ZM126.678 22.9328H118.881V16.882H126.678V22.9328Z" fill="white"/>
<path d="M148.533 31.4788C146.766 31.4788 145.123 31.1981 143.605 30.6367C142.108 30.0753 140.809 29.2852 139.707 28.2663C138.604 27.2266 137.742 26.0102 137.118 24.6171C136.515 23.2239 136.213 21.706 136.213 20.0634C136.213 18.3999 136.515 16.882 137.118 15.5097C137.742 14.1165 138.604 12.9105 139.707 11.8917C140.809 10.852 142.108 10.0515 143.605 9.49007C145.123 8.92866 146.766 8.64795 148.533 8.64795C150.321 8.64795 151.964 8.92866 153.461 9.49007C154.958 10.0515 156.258 10.852 157.36 11.8917C158.462 12.9105 159.314 14.1165 159.917 15.5097C160.541 16.882 160.853 18.3999 160.853 20.0634C160.853 21.706 160.541 23.2239 159.917 24.6171C159.314 26.0102 158.462 27.2266 157.36 28.2663C156.258 29.2852 154.958 30.0753 153.461 30.6367C151.964 31.1981 150.321 31.4788 148.533 31.4788ZM148.533 25.5216C149.219 25.5216 149.854 25.3968 150.436 25.1473C151.039 24.8978 151.559 24.5443 151.995 24.0869C152.453 23.6086 152.806 23.0368 153.056 22.3714C153.305 21.6853 153.43 20.9159 153.43 20.0634C153.43 19.2109 153.305 18.4519 153.056 17.7865C152.806 17.1004 152.453 16.5286 151.995 16.0711C151.559 15.5929 151.039 15.229 150.436 14.9795C149.854 14.7299 149.219 14.6052 148.533 14.6052C147.847 14.6052 147.202 14.7299 146.599 14.9795C146.017 15.229 145.497 15.5929 145.04 16.0711C144.603 16.5286 144.26 17.1004 144.011 17.7865C143.761 18.4519 143.636 19.2109 143.636 20.0634C143.636 20.9159 143.761 21.6853 144.011 22.3714C144.26 23.0368 144.603 23.6086 145.04 24.0869C145.497 24.5443 146.017 24.8978 146.599 25.1473C147.202 25.3968 147.847 25.5216 148.533 25.5216Z" fill="white"/>
<path d="M171.665 31.4788C169.835 31.4788 168.068 31.2709 166.363 30.855C164.658 30.4392 163.254 29.8986 162.152 29.2332L164.523 23.8685C165.562 24.4715 166.716 24.9602 167.985 25.3345C169.274 25.6879 170.522 25.8647 171.728 25.8647C172.435 25.8647 172.986 25.8231 173.381 25.7399C173.797 25.636 174.098 25.5008 174.285 25.3345C174.472 25.1473 174.566 24.929 174.566 24.6795C174.566 24.2844 174.348 23.9725 173.911 23.7438C173.474 23.5151 172.892 23.3279 172.164 23.1824C171.457 23.016 170.678 22.8497 169.825 22.6833C168.973 22.4962 168.11 22.2571 167.236 21.966C166.384 21.6749 165.594 21.2902 164.866 20.8119C164.159 20.3337 163.587 19.7099 163.15 18.9406C162.714 18.1504 162.495 17.1731 162.495 16.0087C162.495 14.6572 162.87 13.4304 163.618 12.3283C164.388 11.2055 165.521 10.3114 167.018 9.64602C168.536 8.98064 170.418 8.64795 172.663 8.64795C174.14 8.64795 175.595 8.8039 177.03 9.11579C178.465 9.42769 179.754 9.90593 180.897 10.5505L178.683 15.884C177.602 15.3433 176.552 14.9379 175.533 14.6676C174.535 14.3973 173.557 14.2621 172.601 14.2621C171.894 14.2621 171.333 14.3245 170.917 14.4492C170.501 14.574 170.199 14.7403 170.012 14.9483C169.846 15.1562 169.763 15.3849 169.763 15.6344C169.763 16.0087 169.981 16.3102 170.418 16.539C170.854 16.7469 171.426 16.9236 172.133 17.0692C172.861 17.2147 173.651 17.3707 174.504 17.537C175.377 17.7034 176.24 17.9321 177.092 18.2232C177.945 18.5143 178.725 18.899 179.431 19.3772C180.159 19.8555 180.741 20.4793 181.178 21.2486C181.615 22.0179 181.833 22.9744 181.833 24.1181C181.833 25.4488 181.448 26.6756 180.679 27.7984C179.931 28.9005 178.808 29.7946 177.311 30.4808C175.813 31.1461 173.932 31.4788 171.665 31.4788Z" fill="white"/>
<path d="M188.46 30.9798V14.8547H182.066V9.14698H202.214V14.8547H195.82V30.9798H188.46Z" fill="white"/>
<path d="M204.126 30.9798V9.14698H211.487V30.9798H204.126Z" fill="white"/>
<path d="M215.03 30.9798V9.14698H221.081L232.185 22.4338H229.378V9.14698H236.551V30.9798H230.501L219.397 17.693H222.204V30.9798H215.03Z" fill="white"/>
<path d="M251.42 31.4788C249.652 31.4788 248.02 31.2085 246.523 30.6679C245.047 30.1065 243.758 29.3163 242.656 28.2975C241.574 27.2786 240.732 26.0726 240.129 24.6795C239.526 23.2863 239.225 21.7476 239.225 20.0634C239.225 18.3791 239.526 16.8405 240.129 15.4473C240.732 14.0542 241.585 12.8482 242.687 11.8293C243.789 10.8104 245.088 10.0307 246.585 9.49007C248.103 8.92866 249.767 8.64795 251.576 8.64795C253.738 8.64795 255.662 9.01183 257.346 9.73959C259.051 10.4673 260.454 11.507 261.556 12.8586L256.847 17.0068C256.161 16.2167 255.412 15.6241 254.601 15.229C253.811 14.8131 252.927 14.6052 251.95 14.6052C251.139 14.6052 250.401 14.7299 249.736 14.9795C249.091 15.229 248.54 15.5929 248.083 16.0711C247.625 16.5493 247.272 17.1212 247.022 17.7865C246.773 18.4519 246.648 19.2109 246.648 20.0634C246.648 20.8743 246.773 21.6229 247.022 22.3091C247.272 22.9744 247.625 23.5462 248.083 24.0245C248.54 24.5027 249.081 24.877 249.704 25.1473C250.349 25.3968 251.066 25.5216 251.856 25.5216C252.688 25.5216 253.499 25.3864 254.289 25.1161C255.079 24.825 255.922 24.3364 256.816 23.6502L260.933 28.7029C259.602 29.5971 258.084 30.2832 256.379 30.7615C254.674 31.2397 253.021 31.4788 251.42 31.4788ZM254.539 27.7673V19.4708H260.933V28.7029L254.539 27.7673Z" fill="white"/>
<defs>
<radialGradient id="paint0_radial_12_7" cx="0" cy="0" r="1" gradientUnits="userSpaceOnUse" gradientTransform="translate(53.4038 8.11456) rotate(90) scale(24.1275 62.6959)">
<stop offset="0.575" stop-color="#F56922"/>
<stop offset="1" stop-color="#E13663"/>
</radialGradient>
<linearGradient id="paint1_linear_12_7" x1="55.2634" y1="9.23169" x2="55.2634" y2="30.895" gradientUnits="userSpaceOnUse">
<stop stop-color="white"/>
<stop offset="1" stop-color="white" stop-opacity="0"/>
</linearGradient>
<linearGradient id="paint2_linear_12_7" x1="55.2634" y1="9.23169" x2="55.2634" y2="30.895" gradientUnits="userSpaceOnUse">
<stop stop-color="white"/>
<stop offset="1" stop-color="white" stop-opacity="0"/>
</linearGradient>
<linearGradient id="paint3_linear_12_7" x1="55.2634" y1="9.23169" x2="55.2634" y2="30.895" gradientUnits="userSpaceOnUse">
<stop stop-color="white"/>
<stop offset="1" stop-color="white" stop-opacity="0"/>
</linearGradient>
<linearGradient id="paint4_linear_12_7" x1="55.2634" y1="9.23169" x2="55.2634" y2="30.895" gradientUnits="userSpaceOnUse">
<stop stop-color="white"/>
<stop offset="1" stop-color="white" stop-opacity="0"/>
</linearGradient>
<linearGradient id="paint5_linear_12_7" x1="55.2634" y1="9.23169" x2="55.2634" y2="30.895" gradientUnits="userSpaceOnUse">
<stop stop-color="white"/>
<stop offset="1" stop-color="white" stop-opacity="0"/>
</linearGradient>
<linearGradient id="paint6_linear_12_7" x1="55.2634" y1="9.23169" x2="55.2634" y2="30.895" gradientUnits="userSpaceOnUse">
<stop stop-color="white"/>
<stop offset="1" stop-color="white" stop-opacity="0"/>
</linearGradient>
<linearGradient id="paint7_linear_12_7" x1="55.2634" y1="9.23169" x2="55.2634" y2="30.895" gradientUnits="userSpaceOnUse">
<stop stop-color="white"/>
<stop offset="1" stop-color="white" stop-opacity="0"/>
</linearGradient>
<linearGradient id="paint8_linear_12_7" x1="55.2634" y1="9.23169" x2="55.2634" y2="30.895" gradientUnits="userSpaceOnUse">
<stop stop-color="white"/>
<stop offset="1" stop-color="white" stop-opacity="0"/>
</linearGradient>
<linearGradient id="paint9_linear_12_7" x1="55.2634" y1="9.23169" x2="55.2634" y2="30.895" gradientUnits="userSpaceOnUse">
<stop stop-color="white"/>
<stop offset="1" stop-color="white" stop-opacity="0"/>
</linearGradient>
</defs>
</svg>
