<svg width="800" height="460" viewBox="0 0 800 460" fill="none" xmlns="http://www.w3.org/2000/svg">
<g clip-path="url(#clip0_127_674)">
<path d="M184.81 433.25C184.81 431.186 185.206 429.56 185.998 428.372C186.802 427.184 188.092 426.59 189.868 426.59C191.644 426.59 192.928 427.184 193.72 428.372C194.524 429.56 194.926 431.186 194.926 433.25C194.926 435.338 194.524 436.976 193.72 438.164C192.928 439.352 191.644 439.946 189.868 439.946C188.092 439.946 186.802 439.352 185.998 438.164C185.206 436.976 184.81 435.338 184.81 433.25ZM191.902 433.25C191.902 432.038 191.77 431.108 191.506 430.46C191.242 429.8 190.696 429.47 189.868 429.47C189.04 429.47 188.494 429.8 188.23 430.46C187.966 431.108 187.834 432.038 187.834 433.25C187.834 434.066 187.882 434.744 187.978 435.284C188.074 435.812 188.266 436.244 188.554 436.58C188.854 436.904 189.292 437.066 189.868 437.066C190.444 437.066 190.876 436.904 191.164 436.58C191.464 436.244 191.662 435.812 191.758 435.284C191.854 434.744 191.902 434.066 191.902 433.25Z" fill="#BEBEBE"/>
<path d="M319.486 429.722V426.86H324.472V440H321.268V429.722H319.486Z" fill="#BEBEBE"/>
<path d="M449.702 437.534C450.11 437.21 450.296 437.06 450.26 437.084C451.436 436.112 452.36 435.314 453.032 434.69C453.716 434.066 454.292 433.412 454.76 432.728C455.228 432.044 455.462 431.378 455.462 430.73C455.462 430.238 455.348 429.854 455.12 429.578C454.892 429.302 454.55 429.164 454.094 429.164C453.638 429.164 453.278 429.338 453.014 429.686C452.762 430.022 452.636 430.502 452.636 431.126H449.666C449.69 430.106 449.906 429.254 450.314 428.57C450.734 427.886 451.28 427.382 451.952 427.058C452.636 426.734 453.392 426.572 454.22 426.572C455.648 426.572 456.722 426.938 457.442 427.67C458.174 428.402 458.54 429.356 458.54 430.532C458.54 431.816 458.102 433.01 457.226 434.114C456.35 435.206 455.234 436.274 453.878 437.318H458.738V439.82H449.702V437.534Z" fill="#BEBEBE"/>
<path d="M581.918 430.568C581.966 429.284 582.386 428.294 583.178 427.598C583.97 426.902 585.044 426.554 586.4 426.554C587.3 426.554 588.068 426.71 588.704 427.022C589.352 427.334 589.838 427.76 590.162 428.3C590.498 428.84 590.666 429.446 590.666 430.118C590.666 430.91 590.468 431.558 590.072 432.062C589.676 432.554 589.214 432.89 588.686 433.07V433.142C589.37 433.37 589.91 433.748 590.306 434.276C590.702 434.804 590.9 435.482 590.9 436.31C590.9 437.054 590.726 437.714 590.378 438.29C590.042 438.854 589.544 439.298 588.884 439.622C588.236 439.946 587.462 440.108 586.562 440.108C585.122 440.108 583.97 439.754 583.106 439.046C582.254 438.338 581.804 437.27 581.756 435.842H584.744C584.756 436.37 584.906 436.79 585.194 437.102C585.482 437.402 585.902 437.552 586.454 437.552C586.922 437.552 587.282 437.42 587.534 437.156C587.798 436.88 587.93 436.52 587.93 436.076C587.93 435.5 587.744 435.086 587.372 434.834C587.012 434.57 586.43 434.438 585.626 434.438H585.05V431.936H585.626C586.238 431.936 586.73 431.834 587.102 431.63C587.486 431.414 587.678 431.036 587.678 430.496C587.678 430.064 587.558 429.728 587.318 429.488C587.078 429.248 586.748 429.128 586.328 429.128C585.872 429.128 585.53 429.266 585.302 429.542C585.086 429.818 584.96 430.16 584.924 430.568H581.918Z" fill="#BEBEBE"/>
<path d="M712.882 437.66V435.176L718.57 427.04H722.008V434.996H723.484V437.66H722.008V440H718.93V437.66H712.882ZM719.146 430.424L716.122 434.996H719.146V430.424Z" fill="#BEBEBE"/>
<path d="M39.807 262.52C40.539 262.676 41.127 263.042 41.571 263.618C42.015 264.182 42.237 264.83 42.237 265.562C42.237 266.618 41.865 267.458 41.121 268.082C40.389 268.694 39.363 269 38.043 269H32.157V256.364H37.845C39.129 256.364 40.131 256.658 40.851 257.246C41.583 257.834 41.949 258.632 41.949 259.64C41.949 260.384 41.751 261.002 41.355 261.494C40.971 261.986 40.455 262.328 39.807 262.52ZM35.235 261.476H37.251C37.755 261.476 38.139 261.368 38.403 261.152C38.679 260.924 38.817 260.594 38.817 260.162C38.817 259.73 38.679 259.4 38.403 259.172C38.139 258.944 37.755 258.83 37.251 258.83H35.235V261.476ZM37.503 266.516C38.019 266.516 38.415 266.402 38.691 266.174C38.979 265.934 39.123 265.592 39.123 265.148C39.123 264.704 38.973 264.356 38.673 264.104C38.385 263.852 37.983 263.726 37.467 263.726H35.235V266.516H37.503ZM45.5703 257.912C45.0303 257.912 44.5863 257.756 44.2383 257.444C43.9023 257.12 43.7343 256.724 43.7343 256.256C43.7343 255.776 43.9023 255.38 44.2383 255.068C44.5863 254.744 45.0303 254.582 45.5703 254.582C46.0983 254.582 46.5303 254.744 46.8663 255.068C47.2143 255.38 47.3883 255.776 47.3883 256.256C47.3883 256.724 47.2143 257.12 46.8663 257.444C46.5303 257.756 46.0983 257.912 45.5703 257.912ZM47.1003 258.956V269H44.0223V258.956H47.1003ZM53.4168 269.144C52.5408 269.144 51.7608 268.994 51.0768 268.694C50.3928 268.394 49.8528 267.986 49.4568 267.47C49.0608 266.942 48.8388 266.354 48.7908 265.706H51.8328C51.8688 266.054 52.0308 266.336 52.3188 266.552C52.6068 266.768 52.9608 266.876 53.3808 266.876C53.7648 266.876 54.0588 266.804 54.2628 266.66C54.4788 266.504 54.5868 266.306 54.5868 266.066C54.5868 265.778 54.4368 265.568 54.1368 265.436C53.8368 265.292 53.3508 265.136 52.6788 264.968C51.9588 264.8 51.3588 264.626 50.8788 264.446C50.3988 264.254 49.9848 263.96 49.6368 263.564C49.2888 263.156 49.1148 262.61 49.1148 261.926C49.1148 261.35 49.2708 260.828 49.5828 260.36C49.9068 259.88 50.3748 259.502 50.9868 259.226C51.6108 258.95 52.3488 258.812 53.2008 258.812C54.4608 258.812 55.4508 259.124 56.1708 259.748C56.9028 260.372 57.3228 261.2 57.4308 262.232H54.5868C54.5388 261.884 54.3828 261.608 54.1188 261.404C53.8668 261.2 53.5308 261.098 53.1108 261.098C52.7508 261.098 52.4748 261.17 52.2828 261.314C52.0908 261.446 51.9948 261.632 51.9948 261.872C51.9948 262.16 52.1448 262.376 52.4448 262.52C52.7568 262.664 53.2368 262.808 53.8848 262.952C54.6288 263.144 55.2348 263.336 55.7028 263.528C56.1708 263.708 56.5788 264.008 56.9268 264.428C57.2868 264.836 57.4728 265.388 57.4848 266.084C57.4848 266.672 57.3168 267.2 56.9808 267.668C56.6568 268.124 56.1828 268.484 55.5588 268.748C54.9468 269.012 54.2328 269.144 53.4168 269.144ZM68.836 263.816C68.836 264.104 68.818 264.404 68.782 264.716H61.816C61.864 265.34 62.062 265.82 62.41 266.156C62.77 266.48 63.208 266.642 63.724 266.642C64.492 266.642 65.026 266.318 65.326 265.67H68.602C68.434 266.33 68.128 266.924 67.684 267.452C67.252 267.98 66.706 268.394 66.046 268.694C65.386 268.994 64.648 269.144 63.832 269.144C62.848 269.144 61.972 268.934 61.204 268.514C60.436 268.094 59.836 267.494 59.404 266.714C58.972 265.934 58.756 265.022 58.756 263.978C58.756 262.934 58.966 262.022 59.386 261.242C59.818 260.462 60.418 259.862 61.186 259.442C61.954 259.022 62.836 258.812 63.832 258.812C64.804 258.812 65.668 259.016 66.424 259.424C67.18 259.832 67.768 260.414 68.188 261.17C68.62 261.926 68.836 262.808 68.836 263.816ZM65.686 263.006C65.686 262.478 65.506 262.058 65.146 261.746C64.786 261.434 64.336 261.278 63.796 261.278C63.28 261.278 62.842 261.428 62.482 261.728C62.134 262.028 61.918 262.454 61.834 263.006H65.686ZM69.8478 263.978C69.8478 262.934 70.0578 262.022 70.4778 261.242C70.9098 260.462 71.5038 259.862 72.2598 259.442C73.0278 259.022 73.9038 258.812 74.8878 258.812C76.1478 258.812 77.1978 259.142 78.0378 259.802C78.8898 260.462 79.4478 261.392 79.7118 262.592H76.4358C76.1598 261.824 75.6258 261.44 74.8338 261.44C74.2698 261.44 73.8198 261.662 73.4838 262.106C73.1478 262.538 72.9798 263.162 72.9798 263.978C72.9798 264.794 73.1478 265.424 73.4838 265.868C73.8198 266.3 74.2698 266.516 74.8338 266.516C75.6258 266.516 76.1598 266.132 76.4358 265.364H79.7118C79.4478 266.54 78.8898 267.464 78.0378 268.136C77.1858 268.808 76.1358 269.144 74.8878 269.144C73.9038 269.144 73.0278 268.934 72.2598 268.514C71.5038 268.094 70.9098 267.494 70.4778 266.714C70.0578 265.934 69.8478 265.022 69.8478 263.978ZM86.9562 266.39V269H85.3902C84.2742 269 83.4042 268.73 82.7802 268.19C82.1562 267.638 81.8442 266.744 81.8442 265.508V261.512H80.6202V258.956H81.8442V256.508H84.9222V258.956H86.9382V261.512H84.9222V265.544C84.9222 265.844 84.9942 266.06 85.1382 266.192C85.2822 266.324 85.5222 266.39 85.8582 266.39H86.9562ZM103.429 256.364V269H100.351V263.798H95.5631V269H92.4851V256.364H95.5631V261.314H100.351V256.364H103.429ZM110.223 269.144C109.239 269.144 108.351 268.934 107.559 268.514C106.779 268.094 106.161 267.494 105.705 266.714C105.261 265.934 105.039 265.022 105.039 263.978C105.039 262.946 105.267 262.04 105.723 261.26C106.179 260.468 106.803 259.862 107.595 259.442C108.387 259.022 109.275 258.812 110.259 258.812C111.243 258.812 112.131 259.022 112.923 259.442C113.715 259.862 114.339 260.468 114.795 261.26C115.251 262.04 115.479 262.946 115.479 263.978C115.479 265.01 115.245 265.922 114.777 266.714C114.321 267.494 113.691 268.094 112.887 268.514C112.095 268.934 111.207 269.144 110.223 269.144ZM110.223 266.48C110.811 266.48 111.309 266.264 111.717 265.832C112.137 265.4 112.347 264.782 112.347 263.978C112.347 263.174 112.143 262.556 111.735 262.124C111.339 261.692 110.847 261.476 110.259 261.476C109.659 261.476 109.161 261.692 108.765 262.124C108.369 262.544 108.171 263.162 108.171 263.978C108.171 264.782 108.363 265.4 108.747 265.832C109.143 266.264 109.635 266.48 110.223 266.48ZM121.198 269.144C120.322 269.144 119.542 268.994 118.858 268.694C118.174 268.394 117.634 267.986 117.238 267.47C116.842 266.942 116.62 266.354 116.572 265.706H119.614C119.65 266.054 119.812 266.336 120.1 266.552C120.388 266.768 120.742 266.876 121.162 266.876C121.546 266.876 121.84 266.804 122.044 266.66C122.26 266.504 122.368 266.306 122.368 266.066C122.368 265.778 122.218 265.568 121.918 265.436C121.618 265.292 121.132 265.136 120.46 264.968C119.74 264.8 119.14 264.626 118.66 264.446C118.18 264.254 117.766 263.96 117.418 263.564C117.07 263.156 116.896 262.61 116.896 261.926C116.896 261.35 117.052 260.828 117.364 260.36C117.688 259.88 118.156 259.502 118.768 259.226C119.392 258.95 120.13 258.812 120.982 258.812C122.242 258.812 123.232 259.124 123.952 259.748C124.684 260.372 125.104 261.2 125.212 262.232H122.368C122.32 261.884 122.164 261.608 121.9 261.404C121.648 261.2 121.312 261.098 120.892 261.098C120.532 261.098 120.256 261.17 120.064 261.314C119.872 261.446 119.776 261.632 119.776 261.872C119.776 262.16 119.926 262.376 120.226 262.52C120.538 262.664 121.018 262.808 121.666 262.952C122.41 263.144 123.016 263.336 123.484 263.528C123.952 263.708 124.36 264.008 124.708 264.428C125.068 264.836 125.254 265.388 125.266 266.084C125.266 266.672 125.098 267.2 124.762 267.668C124.438 268.124 123.964 268.484 123.34 268.748C122.728 269.012 122.014 269.144 121.198 269.144ZM132.747 266.39V269H131.181C130.065 269 129.195 268.73 128.571 268.19C127.947 267.638 127.635 266.744 127.635 265.508V261.512H126.411V258.956H127.635V256.508H130.713V258.956H132.729V261.512H130.713V265.544C130.713 265.844 130.785 266.06 130.929 266.192C131.073 266.324 131.313 266.39 131.649 266.39H132.747ZM136.01 257.912C135.47 257.912 135.026 257.756 134.678 257.444C134.342 257.12 134.174 256.724 134.174 256.256C134.174 255.776 134.342 255.38 134.678 255.068C135.026 254.744 135.47 254.582 136.01 254.582C136.538 254.582 136.97 254.744 137.306 255.068C137.654 255.38 137.828 255.776 137.828 256.256C137.828 256.724 137.654 257.12 137.306 257.444C136.97 257.756 136.538 257.912 136.01 257.912ZM137.54 258.956V269H134.462V258.956H137.54ZM145.89 258.848C147.066 258.848 148.002 259.232 148.698 260C149.406 260.756 149.76 261.8 149.76 263.132V269H146.7V263.546C146.7 262.874 146.526 262.352 146.178 261.98C145.83 261.608 145.362 261.422 144.774 261.422C144.186 261.422 143.718 261.608 143.37 261.98C143.022 262.352 142.848 262.874 142.848 263.546V269H139.77V258.956H142.848V260.288C143.16 259.844 143.58 259.496 144.108 259.244C144.636 258.98 145.23 258.848 145.89 258.848ZM155.715 258.812C156.423 258.812 157.041 258.956 157.569 259.244C158.109 259.532 158.523 259.91 158.811 260.378V258.956H161.889V268.982C161.889 269.906 161.703 270.74 161.331 271.484C160.971 272.24 160.413 272.84 159.657 273.284C158.913 273.728 157.983 273.95 156.867 273.95C155.379 273.95 154.173 273.596 153.249 272.888C152.325 272.192 151.797 271.244 151.665 270.044H154.707C154.803 270.428 155.031 270.728 155.391 270.944C155.751 271.172 156.195 271.286 156.723 271.286C157.359 271.286 157.863 271.1 158.235 270.728C158.619 270.368 158.811 269.786 158.811 268.982V267.56C158.511 268.028 158.097 268.412 157.569 268.712C157.041 269 156.423 269.144 155.715 269.144C154.887 269.144 154.137 268.934 153.465 268.514C152.793 268.082 152.259 267.476 151.863 266.696C151.479 265.904 151.287 264.992 151.287 263.96C151.287 262.928 151.479 262.022 151.863 261.242C152.259 260.462 152.793 259.862 153.465 259.442C154.137 259.022 154.887 258.812 155.715 258.812ZM158.811 263.978C158.811 263.21 158.595 262.604 158.163 262.16C157.743 261.716 157.227 261.494 156.615 261.494C156.003 261.494 155.481 261.716 155.049 262.16C154.629 262.592 154.419 263.192 154.419 263.96C154.419 264.728 154.629 265.34 155.049 265.796C155.481 266.24 156.003 266.462 156.615 266.462C157.227 266.462 157.743 266.24 158.163 265.796C158.595 265.352 158.811 264.746 158.811 263.978Z" fill="#BEBEBE"/>
<path d="M70.0044 183.126C69.0804 183.126 68.2524 182.976 67.5204 182.676C66.7884 182.376 66.2004 181.932 65.7564 181.344C65.3244 180.756 65.0964 180.048 65.0724 179.22H68.3484C68.3964 179.688 68.5584 180.048 68.8344 180.3C69.1104 180.54 69.4704 180.66 69.9144 180.66C70.3704 180.66 70.7304 180.558 70.9944 180.354C71.2584 180.138 71.3904 179.844 71.3904 179.472C71.3904 179.16 71.2824 178.902 71.0664 178.698C70.8624 178.494 70.6044 178.326 70.2924 178.194C69.9924 178.062 69.5604 177.912 68.9964 177.744C68.1804 177.492 67.5144 177.24 66.9984 176.988C66.4824 176.736 66.0384 176.364 65.6664 175.872C65.2944 175.38 65.1084 174.738 65.1084 173.946C65.1084 172.77 65.5344 171.852 66.3864 171.192C67.2384 170.52 68.3484 170.184 69.7164 170.184C71.1084 170.184 72.2304 170.52 73.0824 171.192C73.9344 171.852 74.3904 172.776 74.4504 173.964H71.1204C71.0964 173.556 70.9464 173.238 70.6704 173.01C70.3944 172.77 70.0404 172.65 69.6084 172.65C69.2364 172.65 68.9364 172.752 68.7084 172.956C68.4804 173.148 68.3664 173.43 68.3664 173.802C68.3664 174.21 68.5584 174.528 68.9424 174.756C69.3264 174.984 69.9264 175.23 70.7424 175.494C71.5584 175.77 72.2184 176.034 72.7224 176.286C73.2384 176.538 73.6824 176.904 74.0544 177.384C74.4264 177.864 74.6124 178.482 74.6124 179.238C74.6124 179.958 74.4264 180.612 74.0544 181.2C73.6944 181.788 73.1664 182.256 72.4704 182.604C71.7744 182.952 70.9524 183.126 70.0044 183.126ZM82.6806 172.848C83.8326 172.848 84.7566 173.232 85.4526 174C86.1486 174.756 86.4966 175.8 86.4966 177.132V183H83.4366V177.546C83.4366 176.874 83.2626 176.352 82.9146 175.98C82.5666 175.608 82.0986 175.422 81.5106 175.422C80.9226 175.422 80.4546 175.608 80.1066 175.98C79.7586 176.352 79.5846 176.874 79.5846 177.546V183H76.5066V169.68H79.5846V174.306C79.8966 173.862 80.3226 173.508 80.8626 173.244C81.4026 172.98 82.0086 172.848 82.6806 172.848ZM93.2075 183.144C92.2235 183.144 91.3355 182.934 90.5435 182.514C89.7635 182.094 89.1455 181.494 88.6895 180.714C88.2455 179.934 88.0235 179.022 88.0235 177.978C88.0235 176.946 88.2515 176.04 88.7075 175.26C89.1635 174.468 89.7875 173.862 90.5795 173.442C91.3715 173.022 92.2595 172.812 93.2435 172.812C94.2275 172.812 95.1155 173.022 95.9075 173.442C96.6995 173.862 97.3235 174.468 97.7795 175.26C98.2355 176.04 98.4635 176.946 98.4635 177.978C98.4635 179.01 98.2295 179.922 97.7615 180.714C97.3055 181.494 96.6755 182.094 95.8715 182.514C95.0795 182.934 94.1915 183.144 93.2075 183.144ZM93.2075 180.48C93.7955 180.48 94.2935 180.264 94.7015 179.832C95.1215 179.4 95.3315 178.782 95.3315 177.978C95.3315 177.174 95.1275 176.556 94.7195 176.124C94.3235 175.692 93.8315 175.476 93.2435 175.476C92.6435 175.476 92.1455 175.692 91.7495 176.124C91.3535 176.544 91.1555 177.162 91.1555 177.978C91.1555 178.782 91.3475 179.4 91.7315 179.832C92.1275 180.264 92.6195 180.48 93.2075 180.48ZM99.4845 177.978C99.4845 176.934 99.6945 176.022 100.114 175.242C100.546 174.462 101.14 173.862 101.896 173.442C102.664 173.022 103.54 172.812 104.524 172.812C105.784 172.812 106.834 173.142 107.674 173.802C108.526 174.462 109.084 175.392 109.348 176.592H106.072C105.796 175.824 105.262 175.44 104.47 175.44C103.906 175.44 103.456 175.662 103.12 176.106C102.784 176.538 102.616 177.162 102.616 177.978C102.616 178.794 102.784 179.424 103.12 179.868C103.456 180.3 103.906 180.516 104.47 180.516C105.262 180.516 105.796 180.132 106.072 179.364H109.348C109.084 180.54 108.526 181.464 107.674 182.136C106.822 182.808 105.772 183.144 104.524 183.144C103.54 183.144 102.664 182.934 101.896 182.514C101.14 182.094 100.546 181.494 100.114 180.714C99.6945 179.934 99.4845 179.022 99.4845 177.978ZM117.133 183L114.073 178.788V183H110.995V169.68H114.073V177.042L117.115 172.956H120.913L116.737 177.996L120.949 183H117.133ZM125.2 174.378C125.488 173.91 125.902 173.532 126.442 173.244C126.982 172.956 127.6 172.812 128.296 172.812C129.124 172.812 129.874 173.022 130.546 173.442C131.218 173.862 131.746 174.462 132.13 175.242C132.526 176.022 132.724 176.928 132.724 177.96C132.724 178.992 132.526 179.904 132.13 180.696C131.746 181.476 131.218 182.082 130.546 182.514C129.874 182.934 129.124 183.144 128.296 183.144C127.588 183.144 126.97 183.006 126.442 182.73C125.914 182.442 125.5 182.064 125.2 181.596V183H122.122V169.68H125.2V174.378ZM129.592 177.96C129.592 177.192 129.376 176.592 128.944 176.16C128.524 175.716 128.002 175.494 127.378 175.494C126.766 175.494 126.244 175.716 125.812 176.16C125.392 176.604 125.182 177.21 125.182 177.978C125.182 178.746 125.392 179.352 125.812 179.796C126.244 180.24 126.766 180.462 127.378 180.462C127.99 180.462 128.512 180.24 128.944 179.796C129.376 179.34 129.592 178.728 129.592 177.96ZM144.599 172.956L138.299 187.77H134.987L137.291 182.658L133.205 172.956H136.643L138.965 179.238L141.269 172.956H144.599ZM151.31 180.39V183H149.744C148.628 183 147.758 182.73 147.134 182.19C146.51 181.638 146.198 180.744 146.198 179.508V175.512H144.974V172.956H146.198V170.508H149.276V172.956H151.292V175.512H149.276V179.544C149.276 179.844 149.348 180.06 149.492 180.192C149.636 180.324 149.876 180.39 150.212 180.39H151.31ZM162.492 177.816C162.492 178.104 162.474 178.404 162.438 178.716H155.472C155.52 179.34 155.718 179.82 156.066 180.156C156.426 180.48 156.864 180.642 157.38 180.642C158.148 180.642 158.682 180.318 158.982 179.67H162.258C162.09 180.33 161.784 180.924 161.34 181.452C160.908 181.98 160.362 182.394 159.702 182.694C159.042 182.994 158.304 183.144 157.488 183.144C156.504 183.144 155.628 182.934 154.86 182.514C154.092 182.094 153.492 181.494 153.06 180.714C152.628 179.934 152.412 179.022 152.412 177.978C152.412 176.934 152.622 176.022 153.042 175.242C153.474 174.462 154.074 173.862 154.842 173.442C155.61 173.022 156.492 172.812 157.488 172.812C158.46 172.812 159.324 173.016 160.08 173.424C160.836 173.832 161.424 174.414 161.844 175.17C162.276 175.926 162.492 176.808 162.492 177.816ZM159.342 177.006C159.342 176.478 159.162 176.058 158.802 175.746C158.442 175.434 157.992 175.278 157.452 175.278C156.936 175.278 156.498 175.428 156.138 175.728C155.79 176.028 155.574 176.454 155.49 177.006H159.342Z" fill="#BEBEBE"/>
<path d="M47.3746 94.768H42.6586L41.9026 97H38.6806L43.2526 84.364H46.8166L51.3886 97H48.1306L47.3746 94.768ZM46.5826 92.392L45.0166 87.766L43.4686 92.392H46.5826ZM55.8581 88.378C56.1581 87.91 56.5721 87.532 57.1001 87.244C57.6281 86.956 58.2461 86.812 58.9541 86.812C59.7821 86.812 60.5321 87.022 61.2041 87.442C61.8761 87.862 62.4041 88.462 62.7881 89.242C63.1841 90.022 63.3821 90.928 63.3821 91.96C63.3821 92.992 63.1841 93.904 62.7881 94.696C62.4041 95.476 61.8761 96.082 61.2041 96.514C60.5321 96.934 59.7821 97.144 58.9541 97.144C58.2581 97.144 57.6401 97 57.1001 96.712C56.5721 96.424 56.1581 96.052 55.8581 95.596V101.788H52.7801V86.956H55.8581V88.378ZM60.2501 91.96C60.2501 91.192 60.0341 90.592 59.6021 90.16C59.1821 89.716 58.6601 89.494 58.0361 89.494C57.4241 89.494 56.9021 89.716 56.4701 90.16C56.0501 90.604 55.8401 91.21 55.8401 91.978C55.8401 92.746 56.0501 93.352 56.4701 93.796C56.9021 94.24 57.4241 94.462 58.0361 94.462C58.6481 94.462 59.1701 94.24 59.6021 93.796C60.0341 93.34 60.2501 92.728 60.2501 91.96ZM74.4649 91.816C74.4649 92.104 74.4469 92.404 74.4109 92.716H67.4449C67.4929 93.34 67.6909 93.82 68.0389 94.156C68.3989 94.48 68.8369 94.642 69.3529 94.642C70.1209 94.642 70.6549 94.318 70.9549 93.67H74.2309C74.0629 94.33 73.7569 94.924 73.3129 95.452C72.8809 95.98 72.3349 96.394 71.6749 96.694C71.0149 96.994 70.2769 97.144 69.4609 97.144C68.4769 97.144 67.6009 96.934 66.8329 96.514C66.0649 96.094 65.4649 95.494 65.0329 94.714C64.6009 93.934 64.3849 93.022 64.3849 91.978C64.3849 90.934 64.5949 90.022 65.0149 89.242C65.4469 88.462 66.0469 87.862 66.8149 87.442C67.5829 87.022 68.4649 86.812 69.4609 86.812C70.4329 86.812 71.2969 87.016 72.0529 87.424C72.8089 87.832 73.3969 88.414 73.8169 89.17C74.2489 89.926 74.4649 90.808 74.4649 91.816ZM71.3149 91.006C71.3149 90.478 71.1349 90.058 70.7749 89.746C70.4149 89.434 69.9649 89.278 69.4249 89.278C68.9089 89.278 68.4709 89.428 68.1109 89.728C67.7629 90.028 67.5469 90.454 67.4629 91.006H71.3149ZM82.0287 97L80.1027 94.21L78.4827 97H75.1527L78.4647 91.87L75.0627 86.956H78.5187L80.4447 89.728L82.0647 86.956H85.3947L82.0287 92.014L85.4847 97H82.0287ZM101.429 84.364V97H98.3511V91.798H93.5631V97H90.4851V84.364H93.5631V89.314H98.3511V84.364H101.429ZM108.223 97.144C107.239 97.144 106.351 96.934 105.559 96.514C104.779 96.094 104.161 95.494 103.705 94.714C103.261 93.934 103.039 93.022 103.039 91.978C103.039 90.946 103.267 90.04 103.723 89.26C104.179 88.468 104.803 87.862 105.595 87.442C106.387 87.022 107.275 86.812 108.259 86.812C109.243 86.812 110.131 87.022 110.923 87.442C111.715 87.862 112.339 88.468 112.795 89.26C113.251 90.04 113.479 90.946 113.479 91.978C113.479 93.01 113.245 93.922 112.777 94.714C112.321 95.494 111.691 96.094 110.887 96.514C110.095 96.934 109.207 97.144 108.223 97.144ZM108.223 94.48C108.811 94.48 109.309 94.264 109.717 93.832C110.137 93.4 110.347 92.782 110.347 91.978C110.347 91.174 110.143 90.556 109.735 90.124C109.339 89.692 108.847 89.476 108.259 89.476C107.659 89.476 107.161 89.692 106.765 90.124C106.369 90.544 106.171 91.162 106.171 91.978C106.171 92.782 106.363 93.4 106.747 93.832C107.143 94.264 107.635 94.48 108.223 94.48ZM119.198 97.144C118.322 97.144 117.542 96.994 116.858 96.694C116.174 96.394 115.634 95.986 115.238 95.47C114.842 94.942 114.62 94.354 114.572 93.706H117.614C117.65 94.054 117.812 94.336 118.1 94.552C118.388 94.768 118.742 94.876 119.162 94.876C119.546 94.876 119.84 94.804 120.044 94.66C120.26 94.504 120.368 94.306 120.368 94.066C120.368 93.778 120.218 93.568 119.918 93.436C119.618 93.292 119.132 93.136 118.46 92.968C117.74 92.8 117.14 92.626 116.66 92.446C116.18 92.254 115.766 91.96 115.418 91.564C115.07 91.156 114.896 90.61 114.896 89.926C114.896 89.35 115.052 88.828 115.364 88.36C115.688 87.88 116.156 87.502 116.768 87.226C117.392 86.95 118.13 86.812 118.982 86.812C120.242 86.812 121.232 87.124 121.952 87.748C122.684 88.372 123.104 89.2 123.212 90.232H120.368C120.32 89.884 120.164 89.608 119.9 89.404C119.648 89.2 119.312 89.098 118.892 89.098C118.532 89.098 118.256 89.17 118.064 89.314C117.872 89.446 117.776 89.632 117.776 89.872C117.776 90.16 117.926 90.376 118.226 90.52C118.538 90.664 119.018 90.808 119.666 90.952C120.41 91.144 121.016 91.336 121.484 91.528C121.952 91.708 122.36 92.008 122.708 92.428C123.068 92.836 123.254 93.388 123.266 94.084C123.266 94.672 123.098 95.2 122.762 95.668C122.438 96.124 121.964 96.484 121.34 96.748C120.728 97.012 120.014 97.144 119.198 97.144ZM130.747 94.39V97H129.181C128.065 97 127.195 96.73 126.571 96.19C125.947 95.638 125.635 94.744 125.635 93.508V89.512H124.411V86.956H125.635V84.508H128.713V86.956H130.729V89.512H128.713V93.544C128.713 93.844 128.785 94.06 128.929 94.192C129.073 94.324 129.313 94.39 129.649 94.39H130.747ZM134.01 85.912C133.47 85.912 133.026 85.756 132.678 85.444C132.342 85.12 132.174 84.724 132.174 84.256C132.174 83.776 132.342 83.38 132.678 83.068C133.026 82.744 133.47 82.582 134.01 82.582C134.538 82.582 134.97 82.744 135.306 83.068C135.654 83.38 135.828 83.776 135.828 84.256C135.828 84.724 135.654 85.12 135.306 85.444C134.97 85.756 134.538 85.912 134.01 85.912ZM135.54 86.956V97H132.462V86.956H135.54ZM143.89 86.848C145.066 86.848 146.002 87.232 146.698 88C147.406 88.756 147.76 89.8 147.76 91.132V97H144.7V91.546C144.7 90.874 144.526 90.352 144.178 89.98C143.83 89.608 143.362 89.422 142.774 89.422C142.186 89.422 141.718 89.608 141.37 89.98C141.022 90.352 140.848 90.874 140.848 91.546V97H137.77V86.956H140.848V88.288C141.16 87.844 141.58 87.496 142.108 87.244C142.636 86.98 143.23 86.848 143.89 86.848ZM153.715 86.812C154.423 86.812 155.041 86.956 155.569 87.244C156.109 87.532 156.523 87.91 156.811 88.378V86.956H159.889V96.982C159.889 97.906 159.703 98.74 159.331 99.484C158.971 100.24 158.413 100.84 157.657 101.284C156.913 101.728 155.983 101.95 154.867 101.95C153.379 101.95 152.173 101.596 151.249 100.888C150.325 100.192 149.797 99.244 149.665 98.044H152.707C152.803 98.428 153.031 98.728 153.391 98.944C153.751 99.172 154.195 99.286 154.723 99.286C155.359 99.286 155.863 99.1 156.235 98.728C156.619 98.368 156.811 97.786 156.811 96.982V95.56C156.511 96.028 156.097 96.412 155.569 96.712C155.041 97 154.423 97.144 153.715 97.144C152.887 97.144 152.137 96.934 151.465 96.514C150.793 96.082 150.259 95.476 149.863 94.696C149.479 93.904 149.287 92.992 149.287 91.96C149.287 90.928 149.479 90.022 149.863 89.242C150.259 88.462 150.793 87.862 151.465 87.442C152.137 87.022 152.887 86.812 153.715 86.812ZM156.811 91.978C156.811 91.21 156.595 90.604 156.163 90.16C155.743 89.716 155.227 89.494 154.615 89.494C154.003 89.494 153.481 89.716 153.049 90.16C152.629 90.592 152.419 91.192 152.419 91.96C152.419 92.728 152.629 93.34 153.049 93.796C153.481 94.24 154.003 94.462 154.615 94.462C155.227 94.462 155.743 94.24 156.163 93.796C156.595 93.352 156.811 92.746 156.811 91.978Z" fill="#BEBEBE"/>
<path d="M188 352H324C326.761 352 329 354.239 329 357V365C329 367.761 326.761 370 324 370H188V352Z" fill="url(#paint0_linear_127_674)" fill-opacity="0.5"/>
<path d="M188 328H324C326.761 328 329 330.239 329 333V341C329 343.761 326.761 346 324 346H188V328Z" fill="url(#paint1_linear_127_674)"/>
<path d="M188 266H582C584.761 266 587 268.239 587 271V279C587 281.761 584.761 284 582 284H188V266Z" fill="#D6D6D6" fill-opacity="0.5"/>
<path d="M188 242H582C584.761 242 587 244.239 587 247V255C587 257.761 584.761 260 582 260H188V242Z" fill="#D6D6D6"/>
<path d="M188 180H462C464.761 180 467 182.239 467 185V193C467 195.761 464.761 198 462 198H188V180Z" fill="#D6D6D6" fill-opacity="0.5"/>
<path d="M188 156H657C659.761 156 662 158.239 662 161V169C662 171.761 659.761 174 657 174H188V156Z" fill="#D6D6D6"/>
<path d="M188 94H588C590.761 94 593 96.2386 593 99V107C593 109.761 590.761 112 588 112H188V94Z" fill="#D6D6D6" fill-opacity="0.5"/>
<path d="M188 70H730C732.761 70 735 72.2386 735 75V83C735 85.7614 732.761 88 730 88H188V70Z" fill="#D6D6D6"/>
<rect x="187" y="22" width="612" height="387" rx="24" stroke="url(#paint2_linear_127_674)" stroke-width="2"/>
<path d="M54.1246 352.768H49.4086L48.6526 355H45.4306L50.0026 342.364H53.5666L58.1386 355H54.8806L54.1246 352.768ZM53.3326 350.392L51.7666 345.766L50.2186 350.392H53.3326ZM62.6081 346.63C62.9681 346.078 63.4181 345.646 63.9581 345.334C64.4981 345.01 65.0981 344.848 65.7581 344.848V348.106H64.9121C64.1441 348.106 63.5681 348.274 63.1841 348.61C62.8001 348.934 62.6081 349.51 62.6081 350.338V355H59.5301V344.956H62.6081V346.63ZM72.8273 352.39V355H71.2613C70.1453 355 69.2753 354.73 68.6513 354.19C68.0273 353.638 67.7153 352.744 67.7153 351.508V347.512H66.4913V344.956H67.7153V342.508H70.7933V344.956H72.8093V347.512H70.7933V351.544C70.7933 351.844 70.8653 352.06 71.0093 352.192C71.1533 352.324 71.3933 352.39 71.7293 352.39H72.8273ZM80.7158 344.848C81.8678 344.848 82.7918 345.232 83.4878 346C84.1838 346.756 84.5318 347.8 84.5318 349.132V355H81.4718V349.546C81.4718 348.874 81.2978 348.352 80.9498 347.98C80.6018 347.608 80.1338 347.422 79.5458 347.422C78.9578 347.422 78.4898 347.608 78.1418 347.98C77.7938 348.352 77.6198 348.874 77.6198 349.546V355H74.5418V341.68H77.6198V346.306C77.9318 345.862 78.3578 345.508 78.8978 345.244C79.4378 344.98 80.0438 344.848 80.7158 344.848ZM101.429 342.364V355H98.3511V349.798H93.5631V355H90.4851V342.364H93.5631V347.314H98.3511V342.364H101.429ZM108.223 355.144C107.239 355.144 106.351 354.934 105.559 354.514C104.779 354.094 104.161 353.494 103.705 352.714C103.261 351.934 103.039 351.022 103.039 349.978C103.039 348.946 103.267 348.04 103.723 347.26C104.179 346.468 104.803 345.862 105.595 345.442C106.387 345.022 107.275 344.812 108.259 344.812C109.243 344.812 110.131 345.022 110.923 345.442C111.715 345.862 112.339 346.468 112.795 347.26C113.251 348.04 113.479 348.946 113.479 349.978C113.479 351.01 113.245 351.922 112.777 352.714C112.321 353.494 111.691 354.094 110.887 354.514C110.095 354.934 109.207 355.144 108.223 355.144ZM108.223 352.48C108.811 352.48 109.309 352.264 109.717 351.832C110.137 351.4 110.347 350.782 110.347 349.978C110.347 349.174 110.143 348.556 109.735 348.124C109.339 347.692 108.847 347.476 108.259 347.476C107.659 347.476 107.161 347.692 106.765 348.124C106.369 348.544 106.171 349.162 106.171 349.978C106.171 350.782 106.363 351.4 106.747 351.832C107.143 352.264 107.635 352.48 108.223 352.48ZM119.198 355.144C118.322 355.144 117.542 354.994 116.858 354.694C116.174 354.394 115.634 353.986 115.238 353.47C114.842 352.942 114.62 352.354 114.572 351.706H117.614C117.65 352.054 117.812 352.336 118.1 352.552C118.388 352.768 118.742 352.876 119.162 352.876C119.546 352.876 119.84 352.804 120.044 352.66C120.26 352.504 120.368 352.306 120.368 352.066C120.368 351.778 120.218 351.568 119.918 351.436C119.618 351.292 119.132 351.136 118.46 350.968C117.74 350.8 117.14 350.626 116.66 350.446C116.18 350.254 115.766 349.96 115.418 349.564C115.07 349.156 114.896 348.61 114.896 347.926C114.896 347.35 115.052 346.828 115.364 346.36C115.688 345.88 116.156 345.502 116.768 345.226C117.392 344.95 118.13 344.812 118.982 344.812C120.242 344.812 121.232 345.124 121.952 345.748C122.684 346.372 123.104 347.2 123.212 348.232H120.368C120.32 347.884 120.164 347.608 119.9 347.404C119.648 347.2 119.312 347.098 118.892 347.098C118.532 347.098 118.256 347.17 118.064 347.314C117.872 347.446 117.776 347.632 117.776 347.872C117.776 348.16 117.926 348.376 118.226 348.52C118.538 348.664 119.018 348.808 119.666 348.952C120.41 349.144 121.016 349.336 121.484 349.528C121.952 349.708 122.36 350.008 122.708 350.428C123.068 350.836 123.254 351.388 123.266 352.084C123.266 352.672 123.098 353.2 122.762 353.668C122.438 354.124 121.964 354.484 121.34 354.748C120.728 355.012 120.014 355.144 119.198 355.144ZM130.747 352.39V355H129.181C128.065 355 127.195 354.73 126.571 354.19C125.947 353.638 125.635 352.744 125.635 351.508V347.512H124.411V344.956H125.635V342.508H128.713V344.956H130.729V347.512H128.713V351.544C128.713 351.844 128.785 352.06 128.929 352.192C129.073 352.324 129.313 352.39 129.649 352.39H130.747ZM134.01 343.912C133.47 343.912 133.026 343.756 132.678 343.444C132.342 343.12 132.174 342.724 132.174 342.256C132.174 341.776 132.342 341.38 132.678 341.068C133.026 340.744 133.47 340.582 134.01 340.582C134.538 340.582 134.97 340.744 135.306 341.068C135.654 341.38 135.828 341.776 135.828 342.256C135.828 342.724 135.654 343.12 135.306 343.444C134.97 343.756 134.538 343.912 134.01 343.912ZM135.54 344.956V355H132.462V344.956H135.54ZM143.89 344.848C145.066 344.848 146.002 345.232 146.698 346C147.406 346.756 147.76 347.8 147.76 349.132V355H144.7V349.546C144.7 348.874 144.526 348.352 144.178 347.98C143.83 347.608 143.362 347.422 142.774 347.422C142.186 347.422 141.718 347.608 141.37 347.98C141.022 348.352 140.848 348.874 140.848 349.546V355H137.77V344.956H140.848V346.288C141.16 345.844 141.58 345.496 142.108 345.244C142.636 344.98 143.23 344.848 143.89 344.848ZM153.715 344.812C154.423 344.812 155.041 344.956 155.569 345.244C156.109 345.532 156.523 345.91 156.811 346.378V344.956H159.889V354.982C159.889 355.906 159.703 356.74 159.331 357.484C158.971 358.24 158.413 358.84 157.657 359.284C156.913 359.728 155.983 359.95 154.867 359.95C153.379 359.95 152.173 359.596 151.249 358.888C150.325 358.192 149.797 357.244 149.665 356.044H152.707C152.803 356.428 153.031 356.728 153.391 356.944C153.751 357.172 154.195 357.286 154.723 357.286C155.359 357.286 155.863 357.1 156.235 356.728C156.619 356.368 156.811 355.786 156.811 354.982V353.56C156.511 354.028 156.097 354.412 155.569 354.712C155.041 355 154.423 355.144 153.715 355.144C152.887 355.144 152.137 354.934 151.465 354.514C150.793 354.082 150.259 353.476 149.863 352.696C149.479 351.904 149.287 350.992 149.287 349.96C149.287 348.928 149.479 348.022 149.863 347.242C150.259 346.462 150.793 345.862 151.465 345.442C152.137 345.022 152.887 344.812 153.715 344.812ZM156.811 349.978C156.811 349.21 156.595 348.604 156.163 348.16C155.743 347.716 155.227 347.494 154.615 347.494C154.003 347.494 153.481 347.716 153.049 348.16C152.629 348.592 152.419 349.192 152.419 349.96C152.419 350.728 152.629 351.34 153.049 351.796C153.481 352.24 154.003 352.462 154.615 352.462C155.227 352.462 155.743 352.24 156.163 351.796C156.595 351.352 156.811 350.746 156.811 349.978Z" fill="#BEBEBE"/>
</g>
<defs>
<linearGradient id="paint0_linear_127_674" x1="188" y1="361" x2="329" y2="361" gradientUnits="userSpaceOnUse">
<stop stop-color="#D55A14"/>
<stop offset="1" stop-color="#C72F39"/>
</linearGradient>
<linearGradient id="paint1_linear_127_674" x1="188" y1="337" x2="329" y2="337" gradientUnits="userSpaceOnUse">
<stop stop-color="#D55A14"/>
<stop offset="1" stop-color="#C72F39"/>
</linearGradient>
<linearGradient id="paint2_linear_127_674" x1="160.5" y1="171.316" x2="269.908" y2="11.0394" gradientUnits="userSpaceOnUse">
<stop stop-color="#A1A1A1"/>
<stop offset="1" stop-color="#999999" stop-opacity="0"/>
</linearGradient>
<clipPath id="clip0_127_674">
<rect width="800" height="460" fill="white"/>
</clipPath>
</defs>
</svg>
