<svg width="368" height="82" viewBox="0 0 368 82" fill="none" xmlns="http://www.w3.org/2000/svg">
<rect width="368" height="82" rx="15" fill="url(#paint0_linear_130_772)"/>
<path d="M22.25 22.25V55.5833C22.25 56.6884 22.689 57.7482 23.4704 58.5296C24.2518 59.311 25.3116 59.75 26.4167 59.75H59.75" stroke="#D7D7D7" stroke-width="3" stroke-linecap="round" stroke-linejoin="round"/>
<path d="M30.5835 38.9165H47.2502" stroke="#D7D7D7" stroke-width="3" stroke-linecap="round" stroke-linejoin="round"/>
<path d="M30.5835 49.3335H36.8335" stroke="#D7D7D7" stroke-width="3" stroke-linecap="round" stroke-linejoin="round"/>
<path d="M30.5835 28.5H55.5835" stroke="#D7D7D7" stroke-width="3" stroke-linecap="round" stroke-linejoin="round"/>
<path d="M82.516 43.812C82.516 42.996 82.7 42.264 83.068 41.616C83.436 40.96 83.936 40.448 84.568 40.08C85.208 39.712 85.916 39.528 86.692 39.528C87.604 39.528 88.4 39.748 89.08 40.188C89.76 40.628 90.256 41.252 90.568 42.06H89.26C89.028 41.556 88.692 41.168 88.252 40.896C87.82 40.624 87.3 40.488 86.692 40.488C86.108 40.488 85.584 40.624 85.12 40.896C84.656 41.168 84.292 41.556 84.028 42.06C83.764 42.556 83.632 43.14 83.632 43.812C83.632 44.476 83.764 45.06 84.028 45.564C84.292 46.06 84.656 46.444 85.12 46.716C85.584 46.988 86.108 47.124 86.692 47.124C87.3 47.124 87.82 46.992 88.252 46.728C88.692 46.456 89.028 46.068 89.26 45.564H90.568C90.256 46.364 89.76 46.984 89.08 47.424C88.4 47.856 87.604 48.072 86.692 48.072C85.916 48.072 85.208 47.892 84.568 47.532C83.936 47.164 83.436 46.656 83.068 46.008C82.7 45.36 82.516 44.628 82.516 43.812ZM95.4575 41.304C95.9535 41.304 96.4015 41.412 96.8015 41.628C97.2015 41.836 97.5135 42.152 97.7375 42.576C97.9695 43 98.0855 43.516 98.0855 44.124V48H97.0055V44.28C97.0055 43.624 96.8415 43.124 96.5135 42.78C96.1855 42.428 95.7375 42.252 95.1695 42.252C94.5935 42.252 94.1335 42.432 93.7895 42.792C93.4535 43.152 93.2855 43.676 93.2855 44.364V48H92.1935V39.12H93.2855V42.36C93.5015 42.024 93.7975 41.764 94.1735 41.58C94.5575 41.396 94.9855 41.304 95.4575 41.304ZM99.4613 44.688C99.4613 44.016 99.5973 43.428 99.8693 42.924C100.141 42.412 100.513 42.016 100.985 41.736C101.465 41.456 101.997 41.316 102.581 41.316C103.157 41.316 103.657 41.44 104.081 41.688C104.505 41.936 104.821 42.248 105.029 42.624V41.424H106.133V48H105.029V46.776C104.813 47.16 104.489 47.48 104.057 47.736C103.633 47.984 103.137 48.108 102.569 48.108C101.985 48.108 101.457 47.964 100.985 47.676C100.513 47.388 100.141 46.984 99.8693 46.464C99.5973 45.944 99.4613 45.352 99.4613 44.688ZM105.029 44.7C105.029 44.204 104.929 43.772 104.729 43.404C104.529 43.036 104.257 42.756 103.913 42.564C103.577 42.364 103.205 42.264 102.797 42.264C102.389 42.264 102.017 42.36 101.681 42.552C101.345 42.744 101.077 43.024 100.877 43.392C100.677 43.76 100.577 44.192 100.577 44.688C100.577 45.192 100.677 45.632 100.877 46.008C101.077 46.376 101.345 46.66 101.681 46.86C102.017 47.052 102.389 47.148 102.797 47.148C103.205 47.148 103.577 47.052 103.913 46.86C104.257 46.66 104.529 46.376 104.729 46.008C104.929 45.632 105.029 45.196 105.029 44.7ZM109.071 42.492C109.263 42.116 109.535 41.824 109.887 41.616C110.247 41.408 110.683 41.304 111.195 41.304V42.432H110.907C109.683 42.432 109.071 43.096 109.071 44.424V48H107.979V41.424H109.071V42.492ZM113.787 42.324V46.2C113.787 46.52 113.855 46.748 113.991 46.884C114.127 47.012 114.363 47.076 114.699 47.076H115.503V48H114.519C113.911 48 113.455 47.86 113.151 47.58C112.847 47.3 112.695 46.84 112.695 46.2V42.324H111.843V41.424H112.695V39.768H113.787V41.424H115.503V42.324H113.787ZM119.618 44.688C119.618 44.016 119.754 43.428 120.026 42.924C120.298 42.412 120.67 42.016 121.142 41.736C121.622 41.456 122.158 41.316 122.75 41.316C123.262 41.316 123.738 41.436 124.178 41.676C124.618 41.908 124.954 42.216 125.186 42.6V39.12H126.29V48H125.186V46.764C124.97 47.156 124.65 47.48 124.226 47.736C123.802 47.984 123.306 48.108 122.738 48.108C122.154 48.108 121.622 47.964 121.142 47.676C120.67 47.388 120.298 46.984 120.026 46.464C119.754 45.944 119.618 45.352 119.618 44.688ZM125.186 44.7C125.186 44.204 125.086 43.772 124.886 43.404C124.686 43.036 124.414 42.756 124.07 42.564C123.734 42.364 123.362 42.264 122.954 42.264C122.546 42.264 122.174 42.36 121.838 42.552C121.502 42.744 121.234 43.024 121.034 43.392C120.834 43.76 120.734 44.192 120.734 44.688C120.734 45.192 120.834 45.632 121.034 46.008C121.234 46.376 121.502 46.66 121.838 46.86C122.174 47.052 122.546 47.148 122.954 47.148C123.362 47.148 123.734 47.052 124.07 46.86C124.414 46.66 124.686 46.376 124.886 46.008C125.086 45.632 125.186 45.196 125.186 44.7ZM134.135 44.46C134.135 44.668 134.123 44.888 134.099 45.12H128.843C128.883 45.768 129.103 46.276 129.503 46.644C129.911 47.004 130.403 47.184 130.979 47.184C131.451 47.184 131.843 47.076 132.155 46.86C132.475 46.636 132.699 46.34 132.827 45.972H134.003C133.827 46.604 133.475 47.12 132.947 47.52C132.419 47.912 131.763 48.108 130.979 48.108C130.355 48.108 129.795 47.968 129.299 47.688C128.811 47.408 128.427 47.012 128.147 46.5C127.867 45.98 127.727 45.38 127.727 44.7C127.727 44.02 127.863 43.424 128.135 42.912C128.407 42.4 128.787 42.008 129.275 41.736C129.771 41.456 130.339 41.316 130.979 41.316C131.603 41.316 132.155 41.452 132.635 41.724C133.115 41.996 133.483 42.372 133.739 42.852C134.003 43.324 134.135 43.86 134.135 44.46ZM133.007 44.232C133.007 43.816 132.915 43.46 132.731 43.164C132.547 42.86 132.295 42.632 131.975 42.48C131.663 42.32 131.315 42.24 130.931 42.24C130.379 42.24 129.907 42.416 129.515 42.768C129.131 43.12 128.911 43.608 128.855 44.232H133.007ZM136.668 42.636C136.884 42.26 137.204 41.948 137.628 41.7C138.06 41.444 138.56 41.316 139.128 41.316C139.712 41.316 140.24 41.456 140.712 41.736C141.192 42.016 141.568 42.412 141.84 42.924C142.112 43.428 142.248 44.016 142.248 44.688C142.248 45.352 142.112 45.944 141.84 46.464C141.568 46.984 141.192 47.388 140.712 47.676C140.24 47.964 139.712 48.108 139.128 48.108C138.568 48.108 138.072 47.984 137.64 47.736C137.216 47.48 136.892 47.164 136.668 46.788V51.12H135.576V41.424H136.668V42.636ZM141.132 44.688C141.132 44.192 141.032 43.76 140.832 43.392C140.632 43.024 140.36 42.744 140.016 42.552C139.68 42.36 139.308 42.264 138.9 42.264C138.5 42.264 138.128 42.364 137.784 42.564C137.448 42.756 137.176 43.04 136.968 43.416C136.768 43.784 136.668 44.212 136.668 44.7C136.668 45.196 136.768 45.632 136.968 46.008C137.176 46.376 137.448 46.66 137.784 46.86C138.128 47.052 138.5 47.148 138.9 47.148C139.308 47.148 139.68 47.052 140.016 46.86C140.36 46.66 140.632 46.376 140.832 46.008C141.032 45.632 141.132 45.192 141.132 44.688ZM144.25 40.356C144.042 40.356 143.866 40.284 143.722 40.14C143.578 39.996 143.506 39.82 143.506 39.612C143.506 39.404 143.578 39.228 143.722 39.084C143.866 38.94 144.042 38.868 144.25 38.868C144.45 38.868 144.618 38.94 144.754 39.084C144.898 39.228 144.97 39.404 144.97 39.612C144.97 39.82 144.898 39.996 144.754 40.14C144.618 40.284 144.45 40.356 144.25 40.356ZM144.778 41.424V48H143.686V41.424H144.778ZM146.231 44.7C146.231 44.02 146.367 43.428 146.639 42.924C146.911 42.412 147.287 42.016 147.767 41.736C148.255 41.456 148.811 41.316 149.435 41.316C150.243 41.316 150.907 41.512 151.427 41.904C151.955 42.296 152.303 42.84 152.471 43.536H151.295C151.183 43.136 150.963 42.82 150.635 42.588C150.315 42.356 149.915 42.24 149.435 42.24C148.811 42.24 148.307 42.456 147.923 42.888C147.539 43.312 147.347 43.916 147.347 44.7C147.347 45.492 147.539 46.104 147.923 46.536C148.307 46.968 148.811 47.184 149.435 47.184C149.915 47.184 150.315 47.072 150.635 46.848C150.955 46.624 151.175 46.304 151.295 45.888H152.471C152.295 46.56 151.943 47.1 151.415 47.508C150.887 47.908 150.227 48.108 149.435 48.108C148.811 48.108 148.255 47.968 147.767 47.688C147.287 47.408 146.911 47.012 146.639 46.5C146.367 45.988 146.231 45.388 146.231 44.7ZM155.26 42.324V46.2C155.26 46.52 155.328 46.748 155.464 46.884C155.6 47.012 155.836 47.076 156.172 47.076H156.976V48H155.992C155.384 48 154.928 47.86 154.624 47.58C154.32 47.3 154.168 46.84 154.168 46.2V42.324H153.316V41.424H154.168V39.768H155.26V41.424H156.976V42.324H155.26ZM160.627 48.108C160.123 48.108 159.671 48.024 159.271 47.856C158.871 47.68 158.555 47.44 158.323 47.136C158.091 46.824 157.963 46.468 157.939 46.068H159.067C159.099 46.396 159.251 46.664 159.523 46.872C159.803 47.08 160.167 47.184 160.615 47.184C161.031 47.184 161.359 47.092 161.599 46.908C161.839 46.724 161.959 46.492 161.959 46.212C161.959 45.924 161.831 45.712 161.575 45.576C161.319 45.432 160.923 45.292 160.387 45.156C159.899 45.028 159.499 44.9 159.187 44.772C158.883 44.636 158.619 44.44 158.395 44.184C158.179 43.92 158.071 43.576 158.071 43.152C158.071 42.816 158.171 42.508 158.371 42.228C158.571 41.948 158.855 41.728 159.223 41.568C159.591 41.4 160.011 41.316 160.483 41.316C161.211 41.316 161.799 41.5 162.247 41.868C162.695 42.236 162.935 42.74 162.967 43.38H161.875C161.851 43.036 161.711 42.76 161.455 42.552C161.207 42.344 160.871 42.24 160.447 42.24C160.055 42.24 159.743 42.324 159.511 42.492C159.279 42.66 159.163 42.88 159.163 43.152C159.163 43.368 159.231 43.548 159.367 43.692C159.511 43.828 159.687 43.94 159.895 44.028C160.111 44.108 160.407 44.2 160.783 44.304C161.255 44.432 161.639 44.56 161.935 44.688C162.231 44.808 162.483 44.992 162.691 45.24C162.907 45.488 163.019 45.812 163.027 46.212C163.027 46.572 162.927 46.896 162.727 47.184C162.527 47.472 162.243 47.7 161.875 47.868C161.515 48.028 161.099 48.108 160.627 48.108ZM170.444 42.324H169.064V48H167.972V42.324H167.12V41.424H167.972V40.956C167.972 40.22 168.16 39.684 168.536 39.348C168.92 39.004 169.532 38.832 170.372 38.832V39.744C169.892 39.744 169.552 39.84 169.352 40.032C169.16 40.216 169.064 40.524 169.064 40.956V41.424H170.444V42.324ZM172.281 40.356C172.073 40.356 171.897 40.284 171.753 40.14C171.609 39.996 171.537 39.82 171.537 39.612C171.537 39.404 171.609 39.228 171.753 39.084C171.897 38.94 172.073 38.868 172.281 38.868C172.481 38.868 172.649 38.94 172.785 39.084C172.929 39.228 173.001 39.404 173.001 39.612C173.001 39.82 172.929 39.996 172.785 40.14C172.649 40.284 172.481 40.356 172.281 40.356ZM172.809 41.424V48H171.717V41.424H172.809ZM175.762 42.492C175.954 42.116 176.226 41.824 176.578 41.616C176.938 41.408 177.374 41.304 177.886 41.304V42.432H177.598C176.374 42.432 175.762 43.096 175.762 44.424V48H174.67V41.424H175.762V42.492ZM181.475 48.108C180.971 48.108 180.519 48.024 180.119 47.856C179.719 47.68 179.403 47.44 179.171 47.136C178.939 46.824 178.811 46.468 178.787 46.068H179.915C179.947 46.396 180.099 46.664 180.371 46.872C180.651 47.08 181.015 47.184 181.463 47.184C181.879 47.184 182.207 47.092 182.447 46.908C182.687 46.724 182.807 46.492 182.807 46.212C182.807 45.924 182.679 45.712 182.423 45.576C182.167 45.432 181.771 45.292 181.235 45.156C180.747 45.028 180.347 44.9 180.035 44.772C179.731 44.636 179.467 44.44 179.243 44.184C179.027 43.92 178.919 43.576 178.919 43.152C178.919 42.816 179.019 42.508 179.219 42.228C179.419 41.948 179.703 41.728 180.071 41.568C180.439 41.4 180.859 41.316 181.331 41.316C182.059 41.316 182.647 41.5 183.095 41.868C183.543 42.236 183.783 42.74 183.815 43.38H182.723C182.699 43.036 182.559 42.76 182.303 42.552C182.055 42.344 181.719 42.24 181.295 42.24C180.903 42.24 180.591 42.324 180.359 42.492C180.127 42.66 180.011 42.88 180.011 43.152C180.011 43.368 180.079 43.548 180.215 43.692C180.359 43.828 180.535 43.94 180.743 44.028C180.959 44.108 181.255 44.2 181.631 44.304C182.103 44.432 182.487 44.56 182.783 44.688C183.079 44.808 183.331 44.992 183.539 45.24C183.755 45.488 183.867 45.812 183.875 46.212C183.875 46.572 183.775 46.896 183.575 47.184C183.375 47.472 183.091 47.7 182.723 47.868C182.363 48.028 181.947 48.108 181.475 48.108ZM186.748 42.324V46.2C186.748 46.52 186.816 46.748 186.952 46.884C187.088 47.012 187.324 47.076 187.66 47.076H188.464V48H187.48C186.872 48 186.416 47.86 186.112 47.58C185.808 47.3 185.656 46.84 185.656 46.2V42.324H184.804V41.424H185.656V39.768H186.748V41.424H188.464V42.324H186.748ZM194.347 43.14V44.064H189.559V43.14H194.347ZM204.305 41.304C204.817 41.304 205.273 41.412 205.673 41.628C206.073 41.836 206.389 42.152 206.621 42.576C206.853 43 206.969 43.516 206.969 44.124V48H205.889V44.28C205.889 43.624 205.725 43.124 205.397 42.78C205.077 42.428 204.641 42.252 204.089 42.252C203.521 42.252 203.069 42.436 202.733 42.804C202.397 43.164 202.229 43.688 202.229 44.376V48H201.149V44.28C201.149 43.624 200.985 43.124 200.657 42.78C200.337 42.428 199.901 42.252 199.349 42.252C198.781 42.252 198.329 42.436 197.993 42.804C197.657 43.164 197.489 43.688 197.489 44.376V48H196.397V41.424H197.489V42.372C197.705 42.028 197.993 41.764 198.353 41.58C198.721 41.396 199.125 41.304 199.565 41.304C200.117 41.304 200.605 41.428 201.029 41.676C201.453 41.924 201.769 42.288 201.977 42.768C202.161 42.304 202.465 41.944 202.889 41.688C203.313 41.432 203.785 41.304 204.305 41.304ZM211.628 48.108C211.012 48.108 210.452 47.968 209.948 47.688C209.452 47.408 209.06 47.012 208.772 46.5C208.492 45.98 208.352 45.38 208.352 44.7C208.352 44.028 208.496 43.436 208.784 42.924C209.08 42.404 209.48 42.008 209.984 41.736C210.488 41.456 211.052 41.316 211.676 41.316C212.3 41.316 212.864 41.456 213.368 41.736C213.872 42.008 214.268 42.4 214.556 42.912C214.852 43.424 215 44.02 215 44.7C215 45.38 214.848 45.98 214.544 46.5C214.248 47.012 213.844 47.408 213.332 47.688C212.82 47.968 212.252 48.108 211.628 48.108ZM211.628 47.148C212.02 47.148 212.388 47.056 212.732 46.872C213.076 46.688 213.352 46.412 213.56 46.044C213.776 45.676 213.884 45.228 213.884 44.7C213.884 44.172 213.78 43.724 213.572 43.356C213.364 42.988 213.092 42.716 212.756 42.54C212.42 42.356 212.056 42.264 211.664 42.264C211.264 42.264 210.896 42.356 210.56 42.54C210.232 42.716 209.968 42.988 209.768 43.356C209.568 43.724 209.468 44.172 209.468 44.7C209.468 45.236 209.564 45.688 209.756 46.056C209.956 46.424 210.22 46.7 210.548 46.884C210.876 47.06 211.236 47.148 211.628 47.148ZM219.64 41.304C220.44 41.304 221.088 41.548 221.584 42.036C222.08 42.516 222.328 43.212 222.328 44.124V48H221.248V44.28C221.248 43.624 221.084 43.124 220.756 42.78C220.428 42.428 219.98 42.252 219.412 42.252C218.836 42.252 218.376 42.432 218.032 42.792C217.696 43.152 217.528 43.676 217.528 44.364V48H216.436V41.424H217.528V42.36C217.744 42.024 218.036 41.764 218.404 41.58C218.78 41.396 219.192 41.304 219.64 41.304ZM225.444 42.324V46.2C225.444 46.52 225.512 46.748 225.648 46.884C225.784 47.012 226.02 47.076 226.355 47.076H227.16V48H226.176C225.568 48 225.112 47.86 224.808 47.58C224.504 47.3 224.352 46.84 224.352 46.2V42.324H223.5V41.424H224.352V39.768H225.444V41.424H227.16V42.324H225.444ZM231.747 41.304C232.243 41.304 232.691 41.412 233.091 41.628C233.491 41.836 233.803 42.152 234.027 42.576C234.259 43 234.375 43.516 234.375 44.124V48H233.295V44.28C233.295 43.624 233.131 43.124 232.803 42.78C232.475 42.428 232.027 42.252 231.459 42.252C230.883 42.252 230.423 42.432 230.079 42.792C229.743 43.152 229.575 43.676 229.575 44.364V48H228.483V39.12H229.575V42.36C229.791 42.024 230.087 41.764 230.463 41.58C230.847 41.396 231.275 41.304 231.747 41.304ZM238.95 44.688C238.95 44.016 239.086 43.428 239.358 42.924C239.63 42.412 240.002 42.016 240.474 41.736C240.954 41.456 241.486 41.316 242.07 41.316C242.646 41.316 243.146 41.44 243.57 41.688C243.994 41.936 244.31 42.248 244.518 42.624V41.424H245.622V48H244.518V46.776C244.302 47.16 243.978 47.48 243.546 47.736C243.122 47.984 242.626 48.108 242.058 48.108C241.474 48.108 240.946 47.964 240.474 47.676C240.002 47.388 239.63 46.984 239.358 46.464C239.086 45.944 238.95 45.352 238.95 44.688ZM244.518 44.7C244.518 44.204 244.418 43.772 244.218 43.404C244.018 43.036 243.746 42.756 243.402 42.564C243.066 42.364 242.694 42.264 242.286 42.264C241.878 42.264 241.506 42.36 241.17 42.552C240.834 42.744 240.566 43.024 240.366 43.392C240.166 43.76 240.066 44.192 240.066 44.688C240.066 45.192 240.166 45.632 240.366 46.008C240.566 46.376 240.834 46.66 241.17 46.86C241.506 47.052 241.878 47.148 242.286 47.148C242.694 47.148 243.066 47.052 243.402 46.86C243.746 46.66 244.018 46.376 244.218 46.008C244.418 45.632 244.518 45.196 244.518 44.7ZM250.671 41.304C251.471 41.304 252.119 41.548 252.615 42.036C253.111 42.516 253.359 43.212 253.359 44.124V48H252.279V44.28C252.279 43.624 252.115 43.124 251.787 42.78C251.459 42.428 251.011 42.252 250.443 42.252C249.867 42.252 249.407 42.432 249.063 42.792C248.727 43.152 248.559 43.676 248.559 44.364V48H247.467V41.424H248.559V42.36C248.775 42.024 249.067 41.764 249.435 41.58C249.811 41.396 250.223 41.304 250.671 41.304ZM254.735 44.688C254.735 44.016 254.871 43.428 255.143 42.924C255.415 42.412 255.787 42.016 256.259 41.736C256.739 41.456 257.275 41.316 257.867 41.316C258.379 41.316 258.855 41.436 259.295 41.676C259.735 41.908 260.071 42.216 260.303 42.6V39.12H261.407V48H260.303V46.764C260.087 47.156 259.767 47.48 259.343 47.736C258.919 47.984 258.423 48.108 257.855 48.108C257.271 48.108 256.739 47.964 256.259 47.676C255.787 47.388 255.415 46.984 255.143 46.464C254.871 45.944 254.735 45.352 254.735 44.688ZM260.303 44.7C260.303 44.204 260.203 43.772 260.003 43.404C259.803 43.036 259.531 42.756 259.187 42.564C258.851 42.364 258.479 42.264 258.071 42.264C257.663 42.264 257.291 42.36 256.955 42.552C256.619 42.744 256.351 43.024 256.151 43.392C255.951 43.76 255.851 44.192 255.851 44.688C255.851 45.192 255.951 45.632 256.151 46.008C256.351 46.376 256.619 46.66 256.955 46.86C257.291 47.052 257.663 47.148 258.071 47.148C258.479 47.148 258.851 47.052 259.187 46.86C259.531 46.66 259.803 46.376 260.003 46.008C260.203 45.632 260.303 45.196 260.303 44.7ZM267.543 42.492C267.735 42.116 268.007 41.824 268.359 41.616C268.719 41.408 269.155 41.304 269.667 41.304V42.432H269.379C268.155 42.432 267.543 43.096 267.543 44.424V48H266.451V41.424H267.543V42.492ZM276.928 44.46C276.928 44.668 276.916 44.888 276.892 45.12H271.636C271.676 45.768 271.896 46.276 272.296 46.644C272.704 47.004 273.196 47.184 273.772 47.184C274.244 47.184 274.636 47.076 274.948 46.86C275.268 46.636 275.492 46.34 275.62 45.972H276.796C276.62 46.604 276.268 47.12 275.74 47.52C275.212 47.912 274.556 48.108 273.772 48.108C273.148 48.108 272.588 47.968 272.092 47.688C271.604 47.408 271.22 47.012 270.94 46.5C270.66 45.98 270.52 45.38 270.52 44.7C270.52 44.02 270.656 43.424 270.928 42.912C271.2 42.4 271.58 42.008 272.068 41.736C272.564 41.456 273.132 41.316 273.772 41.316C274.396 41.316 274.948 41.452 275.428 41.724C275.908 41.996 276.276 42.372 276.532 42.852C276.796 43.324 276.928 43.86 276.928 44.46ZM275.8 44.232C275.8 43.816 275.708 43.46 275.524 43.164C275.34 42.86 275.088 42.632 274.768 42.48C274.456 42.32 274.108 42.24 273.724 42.24C273.172 42.24 272.7 42.416 272.308 42.768C271.924 43.12 271.704 43.608 271.648 44.232H275.8ZM277.961 44.7C277.961 44.02 278.097 43.428 278.369 42.924C278.641 42.412 279.017 42.016 279.497 41.736C279.985 41.456 280.541 41.316 281.165 41.316C281.973 41.316 282.637 41.512 283.157 41.904C283.685 42.296 284.033 42.84 284.201 43.536H283.025C282.913 43.136 282.693 42.82 282.365 42.588C282.045 42.356 281.645 42.24 281.165 42.24C280.541 42.24 280.037 42.456 279.653 42.888C279.269 43.312 279.077 43.916 279.077 44.7C279.077 45.492 279.269 46.104 279.653 46.536C280.037 46.968 280.541 47.184 281.165 47.184C281.645 47.184 282.045 47.072 282.365 46.848C282.685 46.624 282.905 46.304 283.025 45.888H284.201C284.025 46.56 283.673 47.1 283.145 47.508C282.617 47.908 281.957 48.108 281.165 48.108C280.541 48.108 279.985 47.968 279.497 47.688C279.017 47.408 278.641 47.012 278.369 46.5C278.097 45.988 277.961 45.388 277.961 44.7ZM291.49 41.424V48H290.398V47.028C290.19 47.364 289.898 47.628 289.522 47.82C289.154 48.004 288.746 48.096 288.298 48.096C287.786 48.096 287.326 47.992 286.918 47.784C286.51 47.568 286.186 47.248 285.946 46.824C285.714 46.4 285.598 45.884 285.598 45.276V41.424H286.678V45.132C286.678 45.78 286.842 46.28 287.17 46.632C287.498 46.976 287.946 47.148 288.514 47.148C289.098 47.148 289.558 46.968 289.894 46.608C290.23 46.248 290.398 45.724 290.398 45.036V41.424H291.49ZM294.426 42.492C294.618 42.116 294.89 41.824 295.242 41.616C295.602 41.408 296.038 41.304 296.55 41.304V42.432H296.262C295.038 42.432 294.426 43.096 294.426 44.424V48H293.334V41.424H294.426V42.492ZM298.903 42.492C299.095 42.116 299.367 41.824 299.719 41.616C300.079 41.408 300.515 41.304 301.027 41.304V42.432H300.739C299.515 42.432 298.903 43.096 298.903 44.424V48H297.811V41.424H298.903V42.492ZM302.851 40.356C302.643 40.356 302.467 40.284 302.323 40.14C302.179 39.996 302.107 39.82 302.107 39.612C302.107 39.404 302.179 39.228 302.323 39.084C302.467 38.94 302.643 38.868 302.851 38.868C303.051 38.868 303.219 38.94 303.355 39.084C303.499 39.228 303.571 39.404 303.571 39.612C303.571 39.82 303.499 39.996 303.355 40.14C303.219 40.284 303.051 40.356 302.851 40.356ZM303.379 41.424V48H302.287V41.424H303.379ZM308.444 41.304C309.244 41.304 309.892 41.548 310.388 42.036C310.884 42.516 311.132 43.212 311.132 44.124V48H310.052V44.28C310.052 43.624 309.888 43.124 309.56 42.78C309.232 42.428 308.784 42.252 308.216 42.252C307.64 42.252 307.18 42.432 306.836 42.792C306.5 43.152 306.332 43.676 306.332 44.364V48H305.24V41.424H306.332V42.36C306.548 42.024 306.84 41.764 307.208 41.58C307.584 41.396 307.996 41.304 308.444 41.304ZM315.628 41.316C316.196 41.316 316.692 41.44 317.116 41.688C317.548 41.936 317.868 42.248 318.076 42.624V41.424H319.18V48.144C319.18 48.744 319.052 49.276 318.796 49.74C318.54 50.212 318.172 50.58 317.692 50.844C317.22 51.108 316.668 51.24 316.036 51.24C315.172 51.24 314.452 51.036 313.876 50.628C313.3 50.22 312.96 49.664 312.856 48.96H313.936C314.056 49.36 314.304 49.68 314.68 49.92C315.056 50.168 315.508 50.292 316.036 50.292C316.636 50.292 317.124 50.104 317.5 49.728C317.884 49.352 318.076 48.824 318.076 48.144V46.764C317.86 47.148 317.54 47.468 317.116 47.724C316.692 47.98 316.196 48.108 315.628 48.108C315.044 48.108 314.512 47.964 314.032 47.676C313.56 47.388 313.188 46.984 312.916 46.464C312.644 45.944 312.508 45.352 312.508 44.688C312.508 44.016 312.644 43.428 312.916 42.924C313.188 42.412 313.56 42.016 314.032 41.736C314.512 41.456 315.044 41.316 315.628 41.316ZM318.076 44.7C318.076 44.204 317.976 43.772 317.776 43.404C317.576 43.036 317.304 42.756 316.96 42.564C316.624 42.364 316.252 42.264 315.844 42.264C315.436 42.264 315.064 42.36 314.728 42.552C314.392 42.744 314.124 43.024 313.924 43.392C313.724 43.76 313.624 44.192 313.624 44.688C313.624 45.192 313.724 45.632 313.924 46.008C314.124 46.376 314.392 46.66 314.728 46.86C315.064 47.052 315.436 47.148 315.844 47.148C316.252 47.148 316.624 47.052 316.96 46.86C317.304 46.66 317.576 46.376 317.776 46.008C317.976 45.632 318.076 45.196 318.076 44.7ZM84.016 58.636C84.232 58.26 84.552 57.948 84.976 57.7C85.408 57.444 85.908 57.316 86.476 57.316C87.06 57.316 87.588 57.456 88.06 57.736C88.54 58.016 88.916 58.412 89.188 58.924C89.46 59.428 89.596 60.016 89.596 60.688C89.596 61.352 89.46 61.944 89.188 62.464C88.916 62.984 88.54 63.388 88.06 63.676C87.588 63.964 87.06 64.108 86.476 64.108C85.916 64.108 85.42 63.984 84.988 63.736C84.564 63.48 84.24 63.164 84.016 62.788V67.12H82.924V57.424H84.016V58.636ZM88.48 60.688C88.48 60.192 88.38 59.76 88.18 59.392C87.98 59.024 87.708 58.744 87.364 58.552C87.028 58.36 86.656 58.264 86.248 58.264C85.848 58.264 85.476 58.364 85.132 58.564C84.796 58.756 84.524 59.04 84.316 59.416C84.116 59.784 84.016 60.212 84.016 60.7C84.016 61.196 84.116 61.632 84.316 62.008C84.524 62.376 84.796 62.66 85.132 62.86C85.476 63.052 85.848 63.148 86.248 63.148C86.656 63.148 87.028 63.052 87.364 62.86C87.708 62.66 87.98 62.376 88.18 62.008C88.38 61.632 88.48 61.192 88.48 60.688ZM92.1254 58.492C92.3174 58.116 92.5894 57.824 92.9414 57.616C93.3014 57.408 93.7374 57.304 94.2494 57.304V58.432H93.9614C92.7374 58.432 92.1254 59.096 92.1254 60.424V64H91.0334V57.424H92.1254V58.492ZM96.0739 56.356C95.8659 56.356 95.6899 56.284 95.5459 56.14C95.4019 55.996 95.3299 55.82 95.3299 55.612C95.3299 55.404 95.4019 55.228 95.5459 55.084C95.6899 54.94 95.8659 54.868 96.0739 54.868C96.2739 54.868 96.4419 54.94 96.5779 55.084C96.7219 55.228 96.7939 55.404 96.7939 55.612C96.7939 55.82 96.7219 55.996 96.5779 56.14C96.4419 56.284 96.2739 56.356 96.0739 56.356ZM96.6019 57.424V64H95.5099V57.424H96.6019ZM98.0551 60.7C98.0551 60.02 98.1911 59.428 98.4631 58.924C98.7351 58.412 99.1111 58.016 99.5911 57.736C100.079 57.456 100.635 57.316 101.259 57.316C102.067 57.316 102.731 57.512 103.251 57.904C103.779 58.296 104.127 58.84 104.295 59.536H103.119C103.007 59.136 102.787 58.82 102.459 58.588C102.139 58.356 101.739 58.24 101.259 58.24C100.635 58.24 100.131 58.456 99.7471 58.888C99.3631 59.312 99.1711 59.916 99.1711 60.7C99.1711 61.492 99.3631 62.104 99.7471 62.536C100.131 62.968 100.635 63.184 101.259 63.184C101.739 63.184 102.139 63.072 102.459 62.848C102.779 62.624 102.999 62.304 103.119 61.888H104.295C104.119 62.56 103.767 63.1 103.239 63.508C102.711 63.908 102.051 64.108 101.259 64.108C100.635 64.108 100.079 63.968 99.5911 63.688C99.1111 63.408 98.7351 63.012 98.4631 62.5C98.1911 61.988 98.0551 61.388 98.0551 60.7ZM111.752 60.46C111.752 60.668 111.74 60.888 111.716 61.12H106.46C106.5 61.768 106.72 62.276 107.12 62.644C107.528 63.004 108.02 63.184 108.596 63.184C109.068 63.184 109.46 63.076 109.772 62.86C110.092 62.636 110.316 62.34 110.444 61.972H111.62C111.444 62.604 111.092 63.12 110.564 63.52C110.036 63.912 109.38 64.108 108.596 64.108C107.972 64.108 107.412 63.968 106.916 63.688C106.428 63.408 106.044 63.012 105.764 62.5C105.484 61.98 105.344 61.38 105.344 60.7C105.344 60.02 105.48 59.424 105.752 58.912C106.024 58.4 106.404 58.008 106.892 57.736C107.388 57.456 107.956 57.316 108.596 57.316C109.22 57.316 109.772 57.452 110.252 57.724C110.732 57.996 111.1 58.372 111.356 58.852C111.62 59.324 111.752 59.86 111.752 60.46ZM110.624 60.232C110.624 59.816 110.532 59.46 110.348 59.164C110.164 58.86 109.912 58.632 109.592 58.48C109.28 58.32 108.932 58.24 108.548 58.24C107.996 58.24 107.524 58.416 107.132 58.768C106.748 59.12 106.528 59.608 106.472 60.232H110.624ZM115.522 64.108C115.018 64.108 114.566 64.024 114.166 63.856C113.766 63.68 113.45 63.44 113.218 63.136C112.986 62.824 112.858 62.468 112.834 62.068H113.962C113.994 62.396 114.146 62.664 114.418 62.872C114.698 63.08 115.062 63.184 115.51 63.184C115.926 63.184 116.254 63.092 116.494 62.908C116.734 62.724 116.854 62.492 116.854 62.212C116.854 61.924 116.726 61.712 116.47 61.576C116.214 61.432 115.818 61.292 115.282 61.156C114.794 61.028 114.394 60.9 114.082 60.772C113.778 60.636 113.514 60.44 113.29 60.184C113.074 59.92 112.966 59.576 112.966 59.152C112.966 58.816 113.066 58.508 113.266 58.228C113.466 57.948 113.75 57.728 114.118 57.568C114.486 57.4 114.906 57.316 115.378 57.316C116.106 57.316 116.694 57.5 117.142 57.868C117.59 58.236 117.83 58.74 117.862 59.38H116.77C116.746 59.036 116.606 58.76 116.35 58.552C116.102 58.344 115.766 58.24 115.342 58.24C114.95 58.24 114.638 58.324 114.406 58.492C114.174 58.66 114.058 58.88 114.058 59.152C114.058 59.368 114.126 59.548 114.262 59.692C114.406 59.828 114.582 59.94 114.79 60.028C115.006 60.108 115.302 60.2 115.678 60.304C116.15 60.432 116.534 60.56 116.83 60.688C117.126 60.808 117.378 60.992 117.586 61.24C117.802 61.488 117.914 61.812 117.922 62.212C117.922 62.572 117.822 62.896 117.622 63.184C117.422 63.472 117.138 63.7 116.77 63.868C116.41 64.028 115.994 64.108 115.522 64.108ZM125.338 58.324H123.958V64H122.866V58.324H122.014V57.424H122.866V56.956C122.866 56.22 123.054 55.684 123.43 55.348C123.814 55.004 124.426 54.832 125.266 54.832V55.744C124.786 55.744 124.446 55.84 124.246 56.032C124.054 56.216 123.958 56.524 123.958 56.956V57.424H125.338V58.324ZM129.48 64.108C128.864 64.108 128.304 63.968 127.8 63.688C127.304 63.408 126.912 63.012 126.624 62.5C126.344 61.98 126.204 61.38 126.204 60.7C126.204 60.028 126.348 59.436 126.636 58.924C126.932 58.404 127.332 58.008 127.836 57.736C128.34 57.456 128.904 57.316 129.528 57.316C130.152 57.316 130.716 57.456 131.22 57.736C131.724 58.008 132.12 58.4 132.408 58.912C132.704 59.424 132.852 60.02 132.852 60.7C132.852 61.38 132.7 61.98 132.396 62.5C132.1 63.012 131.696 63.408 131.184 63.688C130.672 63.968 130.104 64.108 129.48 64.108ZM129.48 63.148C129.872 63.148 130.24 63.056 130.584 62.872C130.928 62.688 131.204 62.412 131.412 62.044C131.628 61.676 131.736 61.228 131.736 60.7C131.736 60.172 131.632 59.724 131.424 59.356C131.216 58.988 130.944 58.716 130.608 58.54C130.272 58.356 129.908 58.264 129.516 58.264C129.116 58.264 128.748 58.356 128.412 58.54C128.084 58.716 127.82 58.988 127.62 59.356C127.42 59.724 127.32 60.172 127.32 60.7C127.32 61.236 127.416 61.688 127.608 62.056C127.808 62.424 128.072 62.7 128.4 62.884C128.728 63.06 129.088 63.148 129.48 63.148ZM135.379 58.492C135.571 58.116 135.843 57.824 136.195 57.616C136.555 57.408 136.991 57.304 137.503 57.304V58.432H137.215C135.991 58.432 135.379 59.096 135.379 60.424V64H134.287V57.424H135.379V58.492ZM147.963 60.46C147.963 60.668 147.951 60.888 147.927 61.12H142.671C142.711 61.768 142.931 62.276 143.331 62.644C143.739 63.004 144.231 63.184 144.807 63.184C145.279 63.184 145.671 63.076 145.983 62.86C146.303 62.636 146.527 62.34 146.655 61.972H147.831C147.655 62.604 147.303 63.12 146.775 63.52C146.247 63.912 145.591 64.108 144.807 64.108C144.183 64.108 143.623 63.968 143.127 63.688C142.639 63.408 142.255 63.012 141.975 62.5C141.695 61.98 141.555 61.38 141.555 60.7C141.555 60.02 141.691 59.424 141.963 58.912C142.235 58.4 142.615 58.008 143.103 57.736C143.599 57.456 144.167 57.316 144.807 57.316C145.431 57.316 145.983 57.452 146.463 57.724C146.943 57.996 147.311 58.372 147.567 58.852C147.831 59.324 147.963 59.86 147.963 60.46ZM146.835 60.232C146.835 59.816 146.743 59.46 146.559 59.164C146.375 58.86 146.123 58.632 145.803 58.48C145.491 58.32 145.143 58.24 144.759 58.24C144.207 58.24 143.735 58.416 143.343 58.768C142.959 59.12 142.739 59.608 142.683 60.232H146.835ZM148.996 60.688C148.996 60.016 149.132 59.428 149.404 58.924C149.676 58.412 150.048 58.016 150.52 57.736C151 57.456 151.532 57.316 152.116 57.316C152.692 57.316 153.192 57.44 153.616 57.688C154.04 57.936 154.356 58.248 154.564 58.624V57.424H155.668V64H154.564V62.776C154.348 63.16 154.024 63.48 153.592 63.736C153.168 63.984 152.672 64.108 152.104 64.108C151.52 64.108 150.992 63.964 150.52 63.676C150.048 63.388 149.676 62.984 149.404 62.464C149.132 61.944 148.996 61.352 148.996 60.688ZM154.564 60.7C154.564 60.204 154.464 59.772 154.264 59.404C154.064 59.036 153.792 58.756 153.448 58.564C153.112 58.364 152.74 58.264 152.332 58.264C151.924 58.264 151.552 58.36 151.216 58.552C150.88 58.744 150.612 59.024 150.412 59.392C150.212 59.76 150.112 60.192 150.112 60.688C150.112 61.192 150.212 61.632 150.412 62.008C150.612 62.376 150.88 62.66 151.216 62.86C151.552 63.052 151.924 63.148 152.332 63.148C152.74 63.148 153.112 63.052 153.448 62.86C153.792 62.66 154.064 62.376 154.264 62.008C154.464 61.632 154.564 61.196 154.564 60.7ZM157.106 60.7C157.106 60.02 157.242 59.428 157.514 58.924C157.786 58.412 158.162 58.016 158.642 57.736C159.13 57.456 159.686 57.316 160.31 57.316C161.118 57.316 161.782 57.512 162.302 57.904C162.83 58.296 163.178 58.84 163.346 59.536H162.17C162.058 59.136 161.838 58.82 161.51 58.588C161.19 58.356 160.79 58.24 160.31 58.24C159.686 58.24 159.182 58.456 158.798 58.888C158.414 59.312 158.222 59.916 158.222 60.7C158.222 61.492 158.414 62.104 158.798 62.536C159.182 62.968 159.686 63.184 160.31 63.184C160.79 63.184 161.19 63.072 161.51 62.848C161.83 62.624 162.05 62.304 162.17 61.888H163.346C163.17 62.56 162.818 63.1 162.29 63.508C161.762 63.908 161.102 64.108 160.31 64.108C159.686 64.108 159.13 63.968 158.642 63.688C158.162 63.408 157.786 63.012 157.514 62.5C157.242 61.988 157.106 61.388 157.106 60.7ZM168.067 57.304C168.563 57.304 169.011 57.412 169.411 57.628C169.811 57.836 170.123 58.152 170.347 58.576C170.579 59 170.695 59.516 170.695 60.124V64H169.615V60.28C169.615 59.624 169.451 59.124 169.123 58.78C168.795 58.428 168.347 58.252 167.779 58.252C167.203 58.252 166.743 58.432 166.399 58.792C166.063 59.152 165.895 59.676 165.895 60.364V64H164.803V55.12H165.895V58.36C166.111 58.024 166.407 57.764 166.783 57.58C167.167 57.396 167.595 57.304 168.067 57.304ZM178.39 57.316C178.958 57.316 179.454 57.44 179.878 57.688C180.31 57.936 180.63 58.248 180.838 58.624V57.424H181.942V64.144C181.942 64.744 181.814 65.276 181.558 65.74C181.302 66.212 180.934 66.58 180.454 66.844C179.982 67.108 179.43 67.24 178.798 67.24C177.934 67.24 177.214 67.036 176.638 66.628C176.062 66.22 175.722 65.664 175.618 64.96H176.698C176.818 65.36 177.066 65.68 177.442 65.92C177.818 66.168 178.27 66.292 178.798 66.292C179.398 66.292 179.886 66.104 180.262 65.728C180.646 65.352 180.838 64.824 180.838 64.144V62.764C180.622 63.148 180.302 63.468 179.878 63.724C179.454 63.98 178.958 64.108 178.39 64.108C177.806 64.108 177.274 63.964 176.794 63.676C176.322 63.388 175.95 62.984 175.678 62.464C175.406 61.944 175.27 61.352 175.27 60.688C175.27 60.016 175.406 59.428 175.678 58.924C175.95 58.412 176.322 58.016 176.794 57.736C177.274 57.456 177.806 57.316 178.39 57.316ZM180.838 60.7C180.838 60.204 180.738 59.772 180.538 59.404C180.338 59.036 180.066 58.756 179.722 58.564C179.386 58.364 179.014 58.264 178.606 58.264C178.198 58.264 177.826 58.36 177.49 58.552C177.154 58.744 176.886 59.024 176.686 59.392C176.486 59.76 176.386 60.192 176.386 60.688C176.386 61.192 176.486 61.632 176.686 62.008C176.886 62.376 177.154 62.66 177.49 62.86C177.826 63.052 178.198 63.148 178.606 63.148C179.014 63.148 179.386 63.052 179.722 62.86C180.066 62.66 180.338 62.376 180.538 62.008C180.738 61.632 180.838 61.196 180.838 60.7ZM184.351 56.356C184.143 56.356 183.967 56.284 183.823 56.14C183.679 55.996 183.607 55.82 183.607 55.612C183.607 55.404 183.679 55.228 183.823 55.084C183.967 54.94 184.143 54.868 184.351 54.868C184.551 54.868 184.719 54.94 184.855 55.084C184.999 55.228 185.071 55.404 185.071 55.612C185.071 55.82 184.999 55.996 184.855 56.14C184.719 56.284 184.551 56.356 184.351 56.356ZM184.879 57.424V64H183.787V57.424H184.879ZM189.452 57.316C190.02 57.316 190.516 57.44 190.94 57.688C191.372 57.936 191.692 58.248 191.9 58.624V57.424H193.004V64.144C193.004 64.744 192.876 65.276 192.62 65.74C192.364 66.212 191.996 66.58 191.516 66.844C191.044 67.108 190.492 67.24 189.86 67.24C188.996 67.24 188.276 67.036 187.7 66.628C187.124 66.22 186.784 65.664 186.68 64.96H187.76C187.88 65.36 188.128 65.68 188.504 65.92C188.88 66.168 189.332 66.292 189.86 66.292C190.46 66.292 190.948 66.104 191.324 65.728C191.708 65.352 191.9 64.824 191.9 64.144V62.764C191.684 63.148 191.364 63.468 190.94 63.724C190.516 63.98 190.02 64.108 189.452 64.108C188.868 64.108 188.336 63.964 187.856 63.676C187.384 63.388 187.012 62.984 186.74 62.464C186.468 61.944 186.332 61.352 186.332 60.688C186.332 60.016 186.468 59.428 186.74 58.924C187.012 58.412 187.384 58.016 187.856 57.736C188.336 57.456 188.868 57.316 189.452 57.316ZM191.9 60.7C191.9 60.204 191.8 59.772 191.6 59.404C191.4 59.036 191.128 58.756 190.784 58.564C190.448 58.364 190.076 58.264 189.668 58.264C189.26 58.264 188.888 58.36 188.552 58.552C188.216 58.744 187.948 59.024 187.748 59.392C187.548 59.76 187.448 60.192 187.448 60.688C187.448 61.192 187.548 61.632 187.748 62.008C187.948 62.376 188.216 62.66 188.552 62.86C188.888 63.052 189.26 63.148 189.668 63.148C190.076 63.148 190.448 63.052 190.784 62.86C191.128 62.66 191.4 62.376 191.6 62.008C191.8 61.632 191.9 61.196 191.9 60.7ZM194.442 60.688C194.442 60.016 194.578 59.428 194.85 58.924C195.122 58.412 195.494 58.016 195.966 57.736C196.446 57.456 196.978 57.316 197.562 57.316C198.138 57.316 198.638 57.44 199.062 57.688C199.486 57.936 199.802 58.248 200.01 58.624V57.424H201.114V64H200.01V62.776C199.794 63.16 199.47 63.48 199.038 63.736C198.614 63.984 198.118 64.108 197.55 64.108C196.966 64.108 196.438 63.964 195.966 63.676C195.494 63.388 195.122 62.984 194.85 62.464C194.578 61.944 194.442 61.352 194.442 60.688ZM200.01 60.7C200.01 60.204 199.91 59.772 199.71 59.404C199.51 59.036 199.238 58.756 198.894 58.564C198.558 58.364 198.186 58.264 197.778 58.264C197.37 58.264 196.998 58.36 196.662 58.552C196.326 58.744 196.058 59.024 195.858 59.392C195.658 59.76 195.558 60.192 195.558 60.688C195.558 61.192 195.658 61.632 195.858 62.008C196.058 62.376 196.326 62.66 196.662 62.86C196.998 63.052 197.37 63.148 197.778 63.148C198.186 63.148 198.558 63.052 198.894 62.86C199.238 62.66 199.51 62.376 199.71 62.008C199.91 61.632 200.01 61.196 200.01 60.7ZM204.051 58.648C204.275 58.256 204.603 57.936 205.035 57.688C205.467 57.44 205.959 57.316 206.511 57.316C207.103 57.316 207.635 57.456 208.107 57.736C208.579 58.016 208.951 58.412 209.223 58.924C209.495 59.428 209.631 60.016 209.631 60.688C209.631 61.352 209.495 61.944 209.223 62.464C208.951 62.984 208.575 63.388 208.095 63.676C207.623 63.964 207.095 64.108 206.511 64.108C205.943 64.108 205.443 63.984 205.011 63.736C204.587 63.488 204.267 63.172 204.051 62.788V64H202.959V55.12H204.051V58.648ZM208.515 60.688C208.515 60.192 208.415 59.76 208.215 59.392C208.015 59.024 207.743 58.744 207.399 58.552C207.063 58.36 206.691 58.264 206.283 58.264C205.883 58.264 205.511 58.364 205.167 58.564C204.831 58.756 204.559 59.04 204.351 59.416C204.151 59.784 204.051 60.212 204.051 60.7C204.051 61.196 204.151 61.632 204.351 62.008C204.559 62.376 204.831 62.66 205.167 62.86C205.511 63.052 205.883 63.148 206.283 63.148C206.691 63.148 207.063 63.052 207.399 62.86C207.743 62.66 208.015 62.376 208.215 62.008C208.415 61.632 208.515 61.192 208.515 60.688ZM216.733 57.424L212.773 67.096H211.645L212.941 63.928L210.289 57.424H211.501L213.565 62.752L215.605 57.424H216.733ZM219.162 58.324V62.2C219.162 62.52 219.23 62.748 219.366 62.884C219.502 63.012 219.738 63.076 220.074 63.076H220.878V64H219.894C219.286 64 218.83 63.86 218.526 63.58C218.222 63.3 218.07 62.84 218.07 62.2V58.324H217.218V57.424H218.07V55.768H219.162V57.424H220.878V58.324H219.162ZM228.201 60.46C228.201 60.668 228.189 60.888 228.165 61.12H222.909C222.949 61.768 223.169 62.276 223.569 62.644C223.977 63.004 224.469 63.184 225.045 63.184C225.517 63.184 225.909 63.076 226.221 62.86C226.541 62.636 226.765 62.34 226.893 61.972H228.069C227.893 62.604 227.541 63.12 227.013 63.52C226.485 63.912 225.829 64.108 225.045 64.108C224.421 64.108 223.861 63.968 223.365 63.688C222.877 63.408 222.493 63.012 222.213 62.5C221.933 61.98 221.793 61.38 221.793 60.7C221.793 60.02 221.929 59.424 222.201 58.912C222.473 58.4 222.853 58.008 223.341 57.736C223.837 57.456 224.405 57.316 225.045 57.316C225.669 57.316 226.221 57.452 226.701 57.724C227.181 57.996 227.549 58.372 227.805 58.852C228.069 59.324 228.201 59.86 228.201 60.46ZM227.073 60.232C227.073 59.816 226.981 59.46 226.797 59.164C226.613 58.86 226.361 58.632 226.041 58.48C225.729 58.32 225.381 58.24 224.997 58.24C224.445 58.24 223.973 58.416 223.581 58.768C223.197 59.12 222.977 59.608 222.921 60.232H227.073ZM235.71 64.108C235.094 64.108 234.534 63.968 234.03 63.688C233.534 63.408 233.142 63.012 232.854 62.5C232.574 61.98 232.434 61.38 232.434 60.7C232.434 60.028 232.578 59.436 232.866 58.924C233.162 58.404 233.562 58.008 234.066 57.736C234.57 57.456 235.134 57.316 235.758 57.316C236.382 57.316 236.946 57.456 237.45 57.736C237.954 58.008 238.35 58.4 238.638 58.912C238.934 59.424 239.082 60.02 239.082 60.7C239.082 61.38 238.93 61.98 238.626 62.5C238.33 63.012 237.926 63.408 237.414 63.688C236.902 63.968 236.334 64.108 235.71 64.108ZM235.71 63.148C236.102 63.148 236.47 63.056 236.814 62.872C237.158 62.688 237.434 62.412 237.642 62.044C237.858 61.676 237.966 61.228 237.966 60.7C237.966 60.172 237.862 59.724 237.654 59.356C237.446 58.988 237.174 58.716 236.838 58.54C236.502 58.356 236.138 58.264 235.746 58.264C235.346 58.264 234.978 58.356 234.642 58.54C234.314 58.716 234.05 58.988 233.85 59.356C233.65 59.724 233.55 60.172 233.55 60.7C233.55 61.236 233.646 61.688 233.838 62.056C234.038 62.424 234.302 62.7 234.63 62.884C234.958 63.06 235.318 63.148 235.71 63.148ZM243.194 58.324H241.814V64H240.722V58.324H239.87V57.424H240.722V56.956C240.722 56.22 240.91 55.684 241.286 55.348C241.67 55.004 242.282 54.832 243.122 54.832V55.744C242.642 55.744 242.302 55.84 242.102 56.032C241.91 56.216 241.814 56.524 241.814 56.956V57.424H243.194V58.324ZM255.574 57.304C256.086 57.304 256.542 57.412 256.942 57.628C257.342 57.836 257.658 58.152 257.89 58.576C258.122 59 258.238 59.516 258.238 60.124V64H257.158V60.28C257.158 59.624 256.994 59.124 256.666 58.78C256.346 58.428 255.91 58.252 255.358 58.252C254.79 58.252 254.338 58.436 254.002 58.804C253.666 59.164 253.498 59.688 253.498 60.376V64H252.418V60.28C252.418 59.624 252.254 59.124 251.926 58.78C251.606 58.428 251.17 58.252 250.618 58.252C250.05 58.252 249.598 58.436 249.262 58.804C248.926 59.164 248.758 59.688 248.758 60.376V64H247.666V57.424H248.758V58.372C248.974 58.028 249.262 57.764 249.622 57.58C249.99 57.396 250.394 57.304 250.834 57.304C251.386 57.304 251.874 57.428 252.298 57.676C252.722 57.924 253.038 58.288 253.246 58.768C253.43 58.304 253.734 57.944 254.158 57.688C254.582 57.432 255.054 57.304 255.574 57.304ZM266.029 60.46C266.029 60.668 266.017 60.888 265.993 61.12H260.737C260.777 61.768 260.997 62.276 261.397 62.644C261.805 63.004 262.297 63.184 262.873 63.184C263.345 63.184 263.737 63.076 264.049 62.86C264.369 62.636 264.593 62.34 264.721 61.972H265.897C265.721 62.604 265.369 63.12 264.841 63.52C264.313 63.912 263.657 64.108 262.873 64.108C262.249 64.108 261.689 63.968 261.193 63.688C260.705 63.408 260.321 63.012 260.041 62.5C259.761 61.98 259.621 61.38 259.621 60.7C259.621 60.02 259.757 59.424 260.029 58.912C260.301 58.4 260.681 58.008 261.169 57.736C261.665 57.456 262.233 57.316 262.873 57.316C263.497 57.316 264.049 57.452 264.529 57.724C265.009 57.996 265.377 58.372 265.633 58.852C265.897 59.324 266.029 59.86 266.029 60.46ZM264.901 60.232C264.901 59.816 264.809 59.46 264.625 59.164C264.441 58.86 264.189 58.632 263.869 58.48C263.557 58.32 263.209 58.24 262.825 58.24C262.273 58.24 261.801 58.416 261.409 58.768C261.025 59.12 260.805 59.608 260.749 60.232H264.901ZM275.379 57.304C275.891 57.304 276.347 57.412 276.747 57.628C277.147 57.836 277.463 58.152 277.695 58.576C277.927 59 278.043 59.516 278.043 60.124V64H276.963V60.28C276.963 59.624 276.799 59.124 276.471 58.78C276.151 58.428 275.715 58.252 275.163 58.252C274.595 58.252 274.143 58.436 273.807 58.804C273.471 59.164 273.303 59.688 273.303 60.376V64H272.223V60.28C272.223 59.624 272.059 59.124 271.731 58.78C271.411 58.428 270.975 58.252 270.423 58.252C269.855 58.252 269.403 58.436 269.067 58.804C268.731 59.164 268.563 59.688 268.563 60.376V64H267.471V57.424H268.563V58.372C268.779 58.028 269.067 57.764 269.427 57.58C269.795 57.396 270.199 57.304 270.639 57.304C271.191 57.304 271.679 57.428 272.103 57.676C272.527 57.924 272.843 58.288 273.051 58.768C273.235 58.304 273.539 57.944 273.963 57.688C274.387 57.432 274.859 57.304 275.379 57.304ZM282.702 64.108C282.086 64.108 281.526 63.968 281.022 63.688C280.526 63.408 280.134 63.012 279.846 62.5C279.566 61.98 279.426 61.38 279.426 60.7C279.426 60.028 279.57 59.436 279.858 58.924C280.154 58.404 280.554 58.008 281.058 57.736C281.562 57.456 282.126 57.316 282.75 57.316C283.374 57.316 283.938 57.456 284.442 57.736C284.946 58.008 285.342 58.4 285.63 58.912C285.926 59.424 286.074 60.02 286.074 60.7C286.074 61.38 285.922 61.98 285.618 62.5C285.322 63.012 284.918 63.408 284.406 63.688C283.894 63.968 283.326 64.108 282.702 64.108ZM282.702 63.148C283.094 63.148 283.462 63.056 283.806 62.872C284.15 62.688 284.426 62.412 284.634 62.044C284.85 61.676 284.958 61.228 284.958 60.7C284.958 60.172 284.854 59.724 284.646 59.356C284.438 58.988 284.166 58.716 283.83 58.54C283.494 58.356 283.13 58.264 282.738 58.264C282.338 58.264 281.97 58.356 281.634 58.54C281.306 58.716 281.042 58.988 280.842 59.356C280.642 59.724 280.542 60.172 280.542 60.7C280.542 61.236 280.638 61.688 280.83 62.056C281.03 62.424 281.294 62.7 281.622 62.884C281.95 63.06 282.31 63.148 282.702 63.148ZM288.602 58.492C288.794 58.116 289.066 57.824 289.418 57.616C289.778 57.408 290.214 57.304 290.726 57.304V58.432H290.438C289.214 58.432 288.602 59.096 288.602 60.424V64H287.51V57.424H288.602V58.492ZM297.651 57.424L293.691 67.096H292.562L293.859 63.928L291.207 57.424H292.419L294.483 62.752L296.523 57.424H297.651ZM299.096 64.072C298.888 64.072 298.712 64 298.568 63.856C298.424 63.712 298.352 63.536 298.352 63.328C298.352 63.12 298.424 62.944 298.568 62.8C298.712 62.656 298.888 62.584 299.096 62.584C299.296 62.584 299.464 62.656 299.6 62.8C299.744 62.944 299.816 63.12 299.816 63.328C299.816 63.536 299.744 63.712 299.6 63.856C299.464 64 299.296 64.072 299.096 64.072Z" fill="white"/>
<path d="M92.746 22.432C92.746 23.164 92.578 23.836 92.242 24.448C91.906 25.048 91.39 25.534 90.694 25.906C89.998 26.278 89.134 26.464 88.102 26.464H86.194V31H83.116V18.364H88.102C89.11 18.364 89.962 18.538 90.658 18.886C91.354 19.234 91.876 19.714 92.224 20.326C92.572 20.938 92.746 21.64 92.746 22.432ZM87.868 24.016C88.456 24.016 88.894 23.878 89.182 23.602C89.47 23.326 89.614 22.936 89.614 22.432C89.614 21.928 89.47 21.538 89.182 21.262C88.894 20.986 88.456 20.848 87.868 20.848H86.194V24.016H87.868ZM97.4264 22.63C97.7864 22.078 98.2364 21.646 98.7764 21.334C99.3164 21.01 99.9164 20.848 100.576 20.848V24.106H99.7304C98.9624 24.106 98.3864 24.274 98.0024 24.61C97.6184 24.934 97.4264 25.51 97.4264 26.338V31H94.3484V20.956H97.4264V22.63ZM103.596 19.912C103.056 19.912 102.612 19.756 102.264 19.444C101.928 19.12 101.76 18.724 101.76 18.256C101.76 17.776 101.928 17.38 102.264 17.068C102.612 16.744 103.056 16.582 103.596 16.582C104.124 16.582 104.556 16.744 104.892 17.068C105.24 17.38 105.414 17.776 105.414 18.256C105.414 18.724 105.24 19.12 104.892 19.444C104.556 19.756 104.124 19.912 103.596 19.912ZM105.126 20.956V31H102.048V20.956H105.126ZM106.744 25.978C106.744 24.934 106.954 24.022 107.374 23.242C107.806 22.462 108.4 21.862 109.156 21.442C109.924 21.022 110.8 20.812 111.784 20.812C113.044 20.812 114.094 21.142 114.934 21.802C115.786 22.462 116.344 23.392 116.608 24.592H113.332C113.056 23.824 112.522 23.44 111.73 23.44C111.166 23.44 110.716 23.662 110.38 24.106C110.044 24.538 109.876 25.162 109.876 25.978C109.876 26.794 110.044 27.424 110.38 27.868C110.716 28.3 111.166 28.516 111.73 28.516C112.522 28.516 113.056 28.132 113.332 27.364H116.608C116.344 28.54 115.786 29.464 114.934 30.136C114.082 30.808 113.032 31.144 111.784 31.144C110.8 31.144 109.924 30.934 109.156 30.514C108.4 30.094 107.806 29.494 107.374 28.714C106.954 27.934 106.744 27.022 106.744 25.978ZM127.723 25.816C127.723 26.104 127.705 26.404 127.669 26.716H120.703C120.751 27.34 120.949 27.82 121.297 28.156C121.657 28.48 122.095 28.642 122.611 28.642C123.379 28.642 123.913 28.318 124.213 27.67H127.489C127.321 28.33 127.015 28.924 126.571 29.452C126.139 29.98 125.593 30.394 124.933 30.694C124.273 30.994 123.535 31.144 122.719 31.144C121.735 31.144 120.859 30.934 120.091 30.514C119.323 30.094 118.723 29.494 118.291 28.714C117.859 27.934 117.643 27.022 117.643 25.978C117.643 24.934 117.853 24.022 118.273 23.242C118.705 22.462 119.305 21.862 120.073 21.442C120.841 21.022 121.723 20.812 122.719 20.812C123.691 20.812 124.555 21.016 125.311 21.424C126.067 21.832 126.655 22.414 127.075 23.17C127.507 23.926 127.723 24.808 127.723 25.816ZM124.573 25.006C124.573 24.478 124.393 24.058 124.033 23.746C123.673 23.434 123.223 23.278 122.683 23.278C122.167 23.278 121.729 23.428 121.369 23.728C121.021 24.028 120.805 24.454 120.721 25.006H124.573ZM136.239 22.378C136.539 21.91 136.953 21.532 137.481 21.244C138.009 20.956 138.627 20.812 139.335 20.812C140.163 20.812 140.913 21.022 141.585 21.442C142.257 21.862 142.785 22.462 143.169 23.242C143.565 24.022 143.763 24.928 143.763 25.96C143.763 26.992 143.565 27.904 143.169 28.696C142.785 29.476 142.257 30.082 141.585 30.514C140.913 30.934 140.163 31.144 139.335 31.144C138.639 31.144 138.021 31 137.481 30.712C136.953 30.424 136.539 30.052 136.239 29.596V35.788H133.161V20.956H136.239V22.378ZM140.631 25.96C140.631 25.192 140.415 24.592 139.983 24.16C139.563 23.716 139.041 23.494 138.417 23.494C137.805 23.494 137.283 23.716 136.851 24.16C136.431 24.604 136.221 25.21 136.221 25.978C136.221 26.746 136.431 27.352 136.851 27.796C137.283 28.24 137.805 28.462 138.417 28.462C139.029 28.462 139.551 28.24 139.983 27.796C140.415 27.34 140.631 26.728 140.631 25.96ZM154.846 25.816C154.846 26.104 154.828 26.404 154.792 26.716H147.826C147.874 27.34 148.072 27.82 148.42 28.156C148.78 28.48 149.218 28.642 149.734 28.642C150.502 28.642 151.036 28.318 151.336 27.67H154.612C154.444 28.33 154.138 28.924 153.694 29.452C153.262 29.98 152.716 30.394 152.056 30.694C151.396 30.994 150.658 31.144 149.842 31.144C148.858 31.144 147.982 30.934 147.214 30.514C146.446 30.094 145.846 29.494 145.414 28.714C144.982 27.934 144.766 27.022 144.766 25.978C144.766 24.934 144.976 24.022 145.396 23.242C145.828 22.462 146.428 21.862 147.196 21.442C147.964 21.022 148.846 20.812 149.842 20.812C150.814 20.812 151.678 21.016 152.434 21.424C153.19 21.832 153.778 22.414 154.198 23.17C154.63 23.926 154.846 24.808 154.846 25.816ZM151.696 25.006C151.696 24.478 151.516 24.058 151.156 23.746C150.796 23.434 150.346 23.278 149.806 23.278C149.29 23.278 148.852 23.428 148.492 23.728C148.144 24.028 147.928 24.454 147.844 25.006H151.696ZM159.548 22.63C159.908 22.078 160.358 21.646 160.898 21.334C161.438 21.01 162.038 20.848 162.698 20.848V24.106H161.852C161.084 24.106 160.508 24.274 160.124 24.61C159.74 24.934 159.548 25.51 159.548 26.338V31H156.47V20.956H159.548V22.63ZM176.371 22.36C176.143 21.94 175.813 21.622 175.381 21.406C174.961 21.178 174.463 21.064 173.887 21.064C172.891 21.064 172.093 21.394 171.493 22.054C170.893 22.702 170.593 23.572 170.593 24.664C170.593 25.828 170.905 26.74 171.529 27.4C172.165 28.048 173.035 28.372 174.139 28.372C174.895 28.372 175.531 28.18 176.047 27.796C176.575 27.412 176.959 26.86 177.199 26.14H173.293V23.872H179.989V26.734C179.761 27.502 179.371 28.216 178.819 28.876C178.279 29.536 177.589 30.07 176.749 30.478C175.909 30.886 174.961 31.09 173.905 31.09C172.657 31.09 171.541 30.82 170.557 30.28C169.585 29.728 168.823 28.966 168.271 27.994C167.731 27.022 167.461 25.912 167.461 24.664C167.461 23.416 167.731 22.306 168.271 21.334C168.823 20.35 169.585 19.588 170.557 19.048C171.529 18.496 172.639 18.22 173.887 18.22C175.399 18.22 176.671 18.586 177.703 19.318C178.747 20.05 179.437 21.064 179.773 22.36H176.371ZM189.344 24.52C190.076 24.676 190.664 25.042 191.108 25.618C191.552 26.182 191.774 26.83 191.774 27.562C191.774 28.618 191.402 29.458 190.658 30.082C189.926 30.694 188.9 31 187.58 31H181.694V18.364H187.382C188.666 18.364 189.668 18.658 190.388 19.246C191.12 19.834 191.486 20.632 191.486 21.64C191.486 22.384 191.288 23.002 190.892 23.494C190.508 23.986 189.992 24.328 189.344 24.52ZM184.772 23.476H186.788C187.292 23.476 187.676 23.368 187.94 23.152C188.216 22.924 188.354 22.594 188.354 22.162C188.354 21.73 188.216 21.4 187.94 21.172C187.676 20.944 187.292 20.83 186.788 20.83H184.772V23.476ZM187.04 28.516C187.556 28.516 187.952 28.402 188.228 28.174C188.516 27.934 188.66 27.592 188.66 27.148C188.66 26.704 188.51 26.356 188.21 26.104C187.922 25.852 187.52 25.726 187.004 25.726H184.772V28.516H187.04ZM200.417 13.9L195.593 34.366H192.623L197.447 13.9H200.417ZM208.16 31L205.532 26.23H204.794V31H201.716V18.364H206.882C207.878 18.364 208.724 18.538 209.42 18.886C210.128 19.234 210.656 19.714 211.004 20.326C211.352 20.926 211.526 21.598 211.526 22.342C211.526 23.182 211.286 23.932 210.806 24.592C210.338 25.252 209.642 25.72 208.718 25.996L211.634 31H208.16ZM204.794 24.052H206.702C207.266 24.052 207.686 23.914 207.962 23.638C208.25 23.362 208.394 22.972 208.394 22.468C208.394 21.988 208.25 21.61 207.962 21.334C207.686 21.058 207.266 20.92 206.702 20.92H204.794V24.052ZM221.324 28.768H216.608L215.852 31H212.63L217.202 18.364H220.766L225.338 31H222.08L221.324 28.768ZM220.532 26.392L218.966 21.766L217.418 26.392H220.532ZM241.039 18.364V31H237.961V23.422L235.135 31H232.651L229.807 23.404V31H226.729V18.364H230.365L233.911 27.112L237.421 18.364H241.039ZM251.207 34.762C250.043 33.646 249.137 32.206 248.489 30.442C247.841 28.678 247.517 26.776 247.517 24.736C247.517 22.672 247.853 20.746 248.525 18.958C249.197 17.158 250.151 15.694 251.387 14.566H254.411V14.854C253.151 16.102 252.179 17.602 251.495 19.354C250.811 21.094 250.469 22.888 250.469 24.736C250.469 26.572 250.799 28.342 251.459 30.046C252.119 31.75 253.049 33.226 254.249 34.474V34.762H251.207ZM265.203 27.328C265.203 27.988 265.029 28.6 264.681 29.164C264.345 29.716 263.841 30.172 263.169 30.532C262.509 30.88 261.723 31.072 260.811 31.108V32.566H259.659V31.09C258.387 30.982 257.361 30.604 256.581 29.956C255.801 29.296 255.387 28.402 255.339 27.274H258.615C258.687 27.994 259.035 28.456 259.659 28.66V25.816C258.723 25.576 257.973 25.342 257.409 25.114C256.857 24.886 256.371 24.52 255.951 24.016C255.531 23.512 255.321 22.822 255.321 21.946C255.321 20.854 255.723 19.978 256.527 19.318C257.343 18.658 258.387 18.286 259.659 18.202V16.744H260.811V18.202C262.071 18.298 263.067 18.664 263.799 19.3C264.531 19.936 264.939 20.818 265.023 21.946H261.729C261.657 21.298 261.351 20.878 260.811 20.686V23.476C261.807 23.752 262.575 23.998 263.115 24.214C263.655 24.43 264.135 24.79 264.555 25.294C264.987 25.786 265.203 26.464 265.203 27.328ZM258.579 21.802C258.579 22.102 258.669 22.354 258.849 22.558C259.041 22.762 259.311 22.942 259.659 23.098V20.596C259.323 20.656 259.059 20.788 258.867 20.992C258.675 21.184 258.579 21.454 258.579 21.802ZM260.811 28.714C261.171 28.654 261.453 28.51 261.657 28.282C261.873 28.054 261.981 27.772 261.981 27.436C261.981 27.124 261.879 26.872 261.675 26.68C261.483 26.476 261.195 26.302 260.811 26.158V28.714ZM266.665 34.762V34.474C267.865 33.226 268.795 31.75 269.455 30.046C270.115 28.342 270.445 26.572 270.445 24.736C270.445 22.888 270.103 21.094 269.419 19.354C268.735 17.602 267.763 16.102 266.503 14.854V14.566H269.527C270.763 15.694 271.717 17.158 272.389 18.958C273.061 20.746 273.397 22.672 273.397 24.736C273.397 26.776 273.073 28.678 272.425 30.442C271.777 32.206 270.871 33.646 269.707 34.762H266.665Z" fill="white"/>
<defs>
<linearGradient id="paint0_linear_130_772" x1="0" y1="41" x2="368" y2="41" gradientUnits="userSpaceOnUse">
<stop stop-color="#2C2529"/>
<stop offset="1" stop-color="#1D2539"/>
</linearGradient>
</defs>
</svg>
