<?xml version="1.0" encoding="utf-8"?>
<svg width="703px" height="348px" viewBox="0 0 703 348" version="1.1" xmlns:xlink="http://www.w3.org/1999/xlink" xmlns="http://www.w3.org/2000/svg">
  <defs>
    <linearGradient gradientUnits="objectBoundingBox" x1="1" y1="0.05296887" x2="0.47995526" y2="1" id="gradient_1">
      <stop offset="0%" stop-color="#1D212A" stop-opacity="0.6117647" />
      <stop offset="100%" stop-color="#1D212A" stop-opacity="0.6117647" />
    </linearGradient>
    <linearGradient gradientUnits="objectBoundingBox" x1="1" y1="0.05296887" x2="0.47995526" y2="1" id="gradient_2">
      <stop offset="0%" stop-color="#000000" stop-opacity="0" />
      <stop offset="100%" stop-color="#000000" stop-opacity="0.9490196" />
    </linearGradient>
    <path d="M0 0L96 0L96 56L0 56L0 0Z" id="path_1" />
    <path d="M0 0L90.75 0L90.75 56L0 56L0 0Z" id="path_2" />
    <path d="M0 0L128 0L128 56L0 56L0 0Z" id="path_3" />
    <clipPath id="clip_1">
      <use xlink:href="#path_1" transform="translate(0, -12.267046)" />
    </clipPath>
    <clipPath id="clip_2">
      <use xlink:href="#path_2" transform="translate(0, -12.267046)" />
    </clipPath>
    <clipPath id="clip_3">
      <use xlink:href="#path_3" transform="translate(0, -12.267046)" />
    </clipPath>
  </defs>
  <path d="M674 0C690.018 0 703 12.9816 703 29L703 319C703 335.018 690.018 348 674 348L29 348C12.9816 348 0 335.018 0 319L0 29C0 12.9816 12.9816 0 29 0L674 0Z" id="Rectangle-3" fill="url(#gradient_1)" stroke="none" />
  <g id="Group" transform="translate(384 209)">
    <path d="M111 0C120.39 0 128 7.60988 128 17L128 58C128 67.3901 120.39 75 111 75L17 75C7.60988 75 0 67.3901 0 58L0 17C0 7.60988 7.60988 0 17 0L111 0Z" id="Rectangle-4" fill="#F87272" stroke="none" />
    <g id="STOP" clip-path="url(#clip_1)" transform="translate(16 21.767046)">
      <g transform="translate(12.633171, 0)" id="STOP">
        <path d="M11.9013 11.7166Q11.7905 10.5994 10.9457 9.98082Q10.1009 9.36221 8.66974 9.36221Q7.20171 9.36221 6.4169 9.96236Q5.6321 10.5625 5.6321 11.4766Q5.61364 12.4922 6.50462 13.0138Q7.3956 13.5355 8.62358 13.8217L10.3224 14.228Q11.9659 14.5973 13.2447 15.299Q14.5234 16.0007 15.2575 17.104Q15.9915 18.2074 15.9915 19.7862Q15.9822 22.3807 14.0479 23.918Q12.1136 25.4553 8.65128 25.4553Q5.20739 25.4553 3.15767 23.8857Q1.10795 22.316 1.03409 19.2507L4.9027 19.2507Q5.00426 20.6726 6.0245 21.3881Q7.04474 22.1037 8.60511 22.1037Q10.1286 22.1037 11.038 21.4574Q11.9474 20.8111 11.9567 19.777Q11.9474 18.8168 11.1165 18.2997Q10.2855 17.7827 8.74361 17.4133L6.68466 16.8963Q4.29332 16.3239 2.90838 15.0774Q1.52344 13.831 1.53267 11.7443Q1.52344 10.027 2.45135 8.73899Q3.37926 7.45099 5.00426 6.73544Q6.62926 6.01989 8.69744 6.01988Q10.8026 6.01989 12.3768 6.74006Q13.951 7.46023 14.8281 8.74361Q15.7053 10.027 15.733 11.7166L11.9013 11.7166ZM17.9489 9.57457L17.9489 6.27841L33.4787 6.27841L33.4787 9.57457L27.6896 9.57457L27.6896 25.1875L23.7379 25.1875L23.7379 9.57457L17.9489 9.57457ZM52.5817 15.733Q52.5817 18.826 51.4137 20.9957Q50.2457 23.1655 48.2422 24.3058Q46.2386 25.446 43.7273 25.446Q41.2067 25.446 39.2031 24.3011Q37.1996 23.1562 36.0362 20.9819Q34.8729 18.8075 34.8729 15.733Q34.8729 12.6399 36.0362 10.4702Q37.1996 8.30042 39.2031 7.16015Q41.2067 6.01989 43.7273 6.01988Q46.2386 6.01989 48.2422 7.16015Q50.2457 8.30042 51.4137 10.4702Q52.5817 12.6399 52.5817 15.733ZM48.5284 15.733Q48.5284 12.723 47.2173 11.1396Q45.9063 9.55611 43.7273 9.55611Q41.5483 9.55611 40.2372 11.1396Q38.9261 12.723 38.9261 15.733Q38.9261 18.7337 40.2372 20.3217Q41.5483 21.9098 43.7273 21.9098Q45.9063 21.9098 47.2173 20.3217Q48.5284 18.7337 48.5284 15.733ZM55.5362 25.1875L55.5362 6.27841L62.9964 6.27841Q65.1477 6.27841 66.6619 7.09552Q68.1761 7.91264 68.9748 9.3576Q69.7734 10.8026 69.7734 12.6861Q69.7734 14.5696 68.9609 16.0053Q68.1484 17.441 66.6111 18.2489Q65.0739 19.0568 62.8949 19.0568L59.5341 19.0568L59.5341 25.1875L55.5362 25.1875ZM59.5341 15.853L62.2486 15.853Q63.9659 15.853 64.8107 14.9712Q65.6555 14.0895 65.6555 12.6861Q65.6555 11.2734 64.8107 10.4102Q63.9659 9.54688 62.2301 9.54687L59.5341 9.54687L59.5341 15.853Z" />
      </g>
    </g>
  </g>
  <g id="Group-3" transform="translate(70 209)">
    <path d="M104 0C113.39 0 121 7.60988 121 17L121 58C121 67.3901 113.39 75 104 75L17 75C7.60988 75 0 67.3901 0 58L0 17C0 7.60988 7.60988 0 17 0L104 0Z" id="Rectangle-4" fill="#088587" stroke="none" />
    <g id="INFO" clip-path="url(#clip_2)" transform="translate(15.125 21.767046)">
      <g transform="translate(14.403057, 0)" id="INFO">
        <path d="M5.64134 6.27841L5.64134 25.1875L1.64347 25.1875L1.64347 6.27841L5.64134 6.27841ZM24.7536 6.27841L24.7536 25.1875L21.3004 25.1875L13.0739 13.2862L12.9354 13.2862L12.9354 25.1875L8.9375 25.1875L8.9375 6.27841L12.446 6.27841L20.608 18.1705L20.7741 18.1705L20.7741 6.27841L24.7536 6.27841ZM28.0497 25.1875L28.0497 6.27841L40.5696 6.27841L40.5696 9.57457L32.0476 9.57457L32.0476 14.0803L39.7386 14.0803L39.7386 17.3764L32.0476 17.3764L32.0476 25.1875L28.0497 25.1875ZM60.6328 15.733Q60.6328 18.826 59.4648 20.9957Q58.2969 23.1655 56.2933 24.3058Q54.2898 25.446 51.7784 25.446Q49.2578 25.446 47.2543 24.3011Q45.2507 23.1562 44.0874 20.9819Q42.924 18.8075 42.924 15.733Q42.924 12.6399 44.0874 10.4702Q45.2507 8.30042 47.2543 7.16015Q49.2578 6.01989 51.7784 6.01988Q54.2898 6.01989 56.2933 7.16015Q58.2969 8.30042 59.4648 10.4702Q60.6328 12.6399 60.6328 15.733ZM56.5795 15.733Q56.5795 12.723 55.2685 11.1396Q53.9574 9.55611 51.7784 9.55611Q49.5994 9.55611 48.2883 11.1396Q46.9773 12.723 46.9773 15.733Q46.9773 18.7337 48.2883 20.3217Q49.5994 21.9098 51.7784 21.9098Q53.9574 21.9098 55.2685 20.3217Q56.5795 18.7337 56.5795 15.733Z" />
      </g>
    </g>
  </g>
  <g id="Group-2" transform="translate(202 209)">
    <path d="M154 0C163.39 0 171 7.60988 171 17L171 58C171 67.3901 163.39 75 154 75L17 75C7.60988 75 0 67.3901 0 58L0 17C0 7.60988 7.60988 0 17 0L154 0Z" id="Rectangle-5" fill="#36D399" stroke="none" />
    <g id="RESTART" clip-path="url(#clip_3)" transform="translate(21.5 21.767046)">
      <g transform="translate(4.5259247, 0)" id="RESTART">
        <path d="M1.64347 25.1875L1.64347 6.27841L9.10369 6.27841Q12.326 6.27841 14.1033 7.95881Q15.8807 9.63921 15.8807 12.4553Q15.8807 14.3942 15.0174 15.7699Q14.1541 17.1456 12.5384 17.8381L16.5547 25.1875L12.1413 25.1875L8.55895 18.4844L5.64134 18.4844L5.64134 25.1875L1.64347 25.1875ZM5.64134 15.2713L8.35582 15.2713Q11.7628 15.2713 11.7628 12.4553Q11.7628 9.54687 8.33736 9.54687L5.64134 9.54687L5.64134 15.2713ZM18.706 25.1875L18.706 6.27841L31.4474 6.27841L31.4474 9.57457L22.7038 9.57457L22.7038 14.0803L30.7919 14.0803L30.7919 17.3764L22.7038 17.3764L22.7038 21.8913L31.4844 21.8913L31.4844 25.1875L18.706 25.1875ZM44.8906 11.7166Q44.7798 10.5994 43.935 9.98082Q43.0902 9.36221 41.6591 9.36221Q40.1911 9.36221 39.4063 9.96236Q38.6214 10.5625 38.6214 11.4766Q38.603 12.4922 39.494 13.0138Q40.3849 13.5355 41.6129 13.8217L43.3118 14.228Q44.9553 14.5973 46.234 15.299Q47.5128 16.0007 48.2468 17.104Q48.9808 18.2074 48.9808 19.7862Q48.9716 22.3807 47.0373 23.918Q45.103 25.4553 41.6406 25.4553Q38.1967 25.4553 36.147 23.8857Q34.0973 22.316 34.0234 19.2507L37.892 19.2507Q37.9936 20.6726 39.0138 21.3881Q40.0341 22.1037 41.5945 22.1037Q43.1179 22.1037 44.0273 21.4574Q44.9368 20.8111 44.946 19.777Q44.9368 18.8168 44.1058 18.2997Q43.2749 17.7827 41.733 17.4133L39.674 16.8963Q37.2827 16.3239 35.8977 15.0774Q34.5128 13.831 34.522 11.7443Q34.5128 10.027 35.4407 8.73899Q36.3686 7.45099 37.9936 6.73544Q39.6186 6.01989 41.6868 6.01988Q43.7919 6.01989 45.3661 6.74006Q46.9403 7.46023 47.8175 8.74361Q48.6946 10.027 48.7223 11.7166L44.8906 11.7166ZM50.9382 9.57457L50.9382 6.27841L66.468 6.27841L66.468 9.57457L60.679 9.57457L60.679 25.1875L56.7273 25.1875L56.7273 9.57457L50.9382 9.57457ZM69.9673 25.1875L65.6832 25.1875L72.2109 6.27841L77.3629 6.27841L83.8814 25.1875L79.5973 25.1875L78.1939 20.8757L71.3707 20.8757L69.9673 25.1875ZM72.3864 17.755L77.1875 17.755L74.8608 10.5994L74.7131 10.5994L72.3864 17.755ZM86.1527 25.1875L86.1527 6.27841L93.6129 6.27841Q96.8352 6.27841 98.6126 7.95881Q100.39 9.63921 100.39 12.4553Q100.39 14.3942 99.5266 15.7699Q98.6634 17.1456 97.0476 17.8381L101.064 25.1875L96.6506 25.1875L93.0682 18.4844L90.1506 18.4844L90.1506 25.1875L86.1527 25.1875ZM90.1506 15.2713L92.8651 15.2713Q96.272 15.2713 96.272 12.4553Q96.272 9.54687 92.8466 9.54687L90.1506 9.54687L90.1506 15.2713ZM102.495 9.57457L102.495 6.27841L118.025 6.27841L118.025 9.57457L112.236 9.57457L112.236 25.1875L108.284 25.1875L108.284 9.57457L102.495 9.57457Z" />
      </g>
    </g>
  </g>
  <path d="M674 0C690.018 0 703 12.9816 703 29L703 319C703 335.018 690.018 348 674 348L29 348C12.9816 348 0 335.018 0 319L0 29C0 12.9816 12.9816 0 29 0L674 0Z" id="Rectangle-2" fill="url(#gradient_2)" stroke="none" />
</svg>